<?xml version="1.0" encoding="UTF-8" standalone="no"?>
<!-- Created with Inkscape (http://www.inkscape.org/) -->

<svg
   xmlns:dc="http://purl.org/dc/elements/1.1/"
   xmlns:cc="http://creativecommons.org/ns#"
   xmlns:rdf="http://www.w3.org/1999/02/22-rdf-syntax-ns#"
   xmlns:svg="http://www.w3.org/2000/svg"
   xmlns="http://www.w3.org/2000/svg"
   xmlns:xlink="http://www.w3.org/1999/xlink"
   xmlns:sodipodi="http://sodipodi.sourceforge.net/DTD/sodipodi-0.dtd"
   xmlns:inkscape="http://www.inkscape.org/namespaces/inkscape"
   width="210mm"
   height="297mm"
   viewBox="0 0 210 297"
   version="1.1"
   id="svg8"
   inkscape:version="0.92.4 (5da689c313, 2019-01-14)"
   sodipodi:docname="hintergrund1.svg">
  <defs
     id="defs2" />
  <sodipodi:namedview
     id="base"
     pagecolor="#ffffff"
     bordercolor="#666666"
     borderopacity="1.0"
     inkscape:pageopacity="0.0"
     inkscape:pageshadow="2"
     inkscape:zoom="0.35"
     inkscape:cx="4720.8123"
     inkscape:cy="-1225.6153"
     inkscape:document-units="mm"
     inkscape:current-layer="layer1"
     showgrid="false"
     inkscape:snap-object-midpoints="true"
     inkscape:snap-center="true"
     inkscape:window-width="1920"
     inkscape:window-height="1036"
     inkscape:window-x="0"
     inkscape:window-y="44"
     inkscape:window-maximized="0" />
  <metadata
     id="metadata5">
    <rdf:RDF>
      <cc:Work
         rdf:about="">
        <dc:format>image/svg+xml</dc:format>
        <dc:type
           rdf:resource="http://purl.org/dc/dcmitype/StillImage" />
        <dc:title></dc:title>
      </cc:Work>
    </rdf:RDF>
  </metadata>
  <g
     inkscape:label="Layer 1"
     inkscape:groupmode="layer"
     id="layer1">
    <rect
       style="fill:#cccccc;stroke-width:0.25459585"
       id="rect3924"
       width="180"
       height="180"
       x="876.875"
       y="840.32172" />
    <rect
       y="843.34747"
       x="1121.2789"
       height="180"
       width="180"
       id="rect3926"
       style="fill:#cccccc;stroke-width:0.25459585" />
    <rect
       style="fill:#cccccc;stroke-width:0.25459585"
       id="rect3928"
       width="180"
       height="180"
       x="1226.6143"
       y="652.41815" />
    <rect
       y="646.40833"
       x="1027.9355"
       height="180"
       width="180"
       id="rect3930"
       style="fill:#cccccc;stroke-width:0.25459585" />
    <rect
       style="fill:#cccccc;stroke-width:0.25459585"
       id="rect3932"
       width="180"
       height="180"
       x="806.85822"
       y="643.36578" />
    <rect
       y="429.78958"
       x="816.68512"
       height="180"
       width="180"
       id="rect3934"
       style="fill:#cccccc;stroke-width:0.25459585" />
    <rect
       style="fill:#cccccc;stroke-width:0.25459585"
       id="rect3936"
       width="180"
       height="180"
       x="1020.4781"
       y="437.53986" />
    <rect
       y="458.02847"
       x="1207.5988"
       height="180"
       width="180"
       id="rect3938"
       style="fill:#cccccc;stroke-width:0.25459585" />
    <path
       style="fill:none;stroke:#000000;stroke-width:0.26458332px;stroke-linecap:butt;stroke-linejoin:miter;stroke-opacity:1"
       d="m -290.66368,-97.229167 -1.32292,18.331847 -1.13392,11.71726 -0.56698,11.717264 0.56698,11.528274 -0.37798,16.441962 0.75594,15.119048 v 11.71726171 l 0.37798,10.96130929 -0.94493,3.96875 2.07886,13.79613 v 4.346726 l 0.94493,1.322917 9.44941,-1.700893 5.10267,-1.322917 6.61458,-2.456844 9.63841,-1.511905 7.55952,2.07887 h 10.20536 l 9.63839,0.755952 5.85863,1.511903 h 10.01637 l 14.17411,1.13393 8.69345,0.755952 h 11.71726 l 11.71726,0.944941 h 13.79614 l -0.75596,-2.267858 0.56697,-48.947915 1.13393,-21.166667 0.18898,-8.882441 v -7.748511 l -3.96875,-19.087798 2.07887,-6.992559 -8.50446,-25.702382 -5.66964,1.13393 -8.69346,2.07887 -19.27678,2.26786 -28.15923,6.61458 -10.39434,-0.944941 -6.04762,2.267858 c -9.18171,6.034968 -25.15155,2.760489 -43.08928,-3.212799 z"
       id="path3778"
       inkscape:connector-curvature="0"
       sodipodi:nodetypes="ccccccccccccccccccccccccccccccccccccccccccc" />
    <image
       sodipodi:absref="/home/user/Downloads/IMG_20200403_224518.jpg"
       y="438.19897"
       x="771.98199"
       id="image3873"
       xlink:href="file:///home/user/Downloads/IMG_20200403_224518.jpg"
       style="image-rendering:optimizeQuality"
       preserveAspectRatio="none"
       height="647.70001"
       width="863.59998" />
    <path
       style="fill:#000000;stroke-width:0.26458332"
       d="m 1022.3518,1006.1419 c 1.4925,-0.4951 5.8759,-1.4222 7.396,-1.5642 0.6713,-0.063 1.3578,-0.1988 1.5254,-0.3024 0.1676,-0.1036 2.052,-0.3511 4.1875,-0.55 6.7133,-0.6253 9.6426,-1.2256 10.393,-2.1298 0.315,-0.3796 0.5986,-3.69715 0.5626,-6.5809 -0.1043,-8.33104 -0.017,-22.41827 0.1484,-23.87351 0.2388,-2.10431 0.4758,-12.71016 0.4095,-18.32753 -0.023,-1.96453 -0.1071,-8.27484 -0.1865,-14.02292 -0.079,-5.74807 -0.061,-12.35604 0.042,-14.68437 0.1026,-2.32833 0.1015,-5.1263 0,-6.21771 -0.104,-1.09141 -0.2484,-3.71078 -0.3209,-5.82083 -0.072,-2.11005 -0.2728,-4.4913 -0.4453,-5.29167 -0.3885,-1.80255 -0.2741,-11.69228 0.2188,-18.91771 0.089,-1.30969 0.1484,-2.94679 0.1314,-3.63802 -0.058,-2.3559 -0.051,-2.71261 0.085,-4.43177 0.2587,-3.25686 0.3277,-10.98627 0.1248,-13.98124 -0.1118,-1.65058 -0.096,-4.43723 0.034,-6.19255 0.2562,-3.43919 0.1888,-4.01003 -0.5096,-4.32007 -0.2491,-0.11056 -2.7747,-0.22688 -5.6123,-0.25841 -2.8377,-0.0316 -8.9099,-0.14238 -13.4938,-0.24625 -6.0884,-0.13798 -9.1899,-0.098 -11.5093,0.14846 -3.3817,0.3593 -15.0305,0.38586 -34.52004,0.0787 -7.09578,-0.11182 -13.78925,-0.0514 -19.84375,0.17912 -5.02494,0.19132 -9.4339,0.3339 -9.7977,0.31686 -0.36381,-0.0169 -4.70959,-0.0887 -9.65729,-0.15922 -4.94771,-0.0705 -10.12693,-0.25704 -11.50938,-0.41445 -1.38245,-0.1574 -3.82323,-0.42976 -5.42396,-0.60523 -1.70734,-0.18717 -6.90244,-0.32393 -12.56771,-0.33086 -8.36716,-0.0101 -9.87841,0.0494 -11.3125,0.44617 -0.91036,0.25188 -1.96168,0.65876 -2.33624,0.90418 -0.57877,0.37923 -0.6563,0.57806 -0.51631,1.32427 0.0906,0.48294 0.0403,1.11064 -0.11187,1.39488 -0.19527,0.36489 -0.19129,0.56954 0.0136,0.69612 0.38314,0.2368 0.1703,1.71162 -0.53135,3.68178 -0.30949,0.869 -0.50654,1.72638 -0.43789,1.90527 0.0686,0.17891 -0.17023,1.0514 -0.53085,1.93889 -0.36061,0.88749 -0.59419,1.71307 -0.51906,1.83465 0.15312,0.24773 -0.26422,1.7222 -0.71633,2.53077 -0.16273,0.29104 -0.39316,1.03518 -0.51205,1.65364 -0.40458,2.10447 -0.69453,3.3718 -1.00667,4.39989 -0.1714,0.56454 -0.24836,1.26841 -0.17103,1.56414 0.0773,0.29572 0.0199,0.76332 -0.12777,1.03912 -0.1476,0.2758 -0.50016,1.6972 -0.78346,3.15865 -0.37881,1.95411 -0.66022,2.77469 -1.06359,3.10131 -0.74094,0.59997 -1.0831,3.65612 -0.74621,6.66504 0.45665,4.07853 0.70677,5.9308 0.85501,6.33175 0.0807,0.21828 0.21629,1.82562 0.30132,3.57187 0.085,1.74625 0.3509,3.82985 0.59085,4.63021 0.49964,1.66664 0.55441,3.0598 0.22361,5.68854 -0.47489,3.77386 -0.22137,17.51293 0.3426,18.56671 0.15739,0.29409 0.2195,1.15944 0.14069,1.96012 -0.0776,0.78848 -5.3e-4,1.96937 0.17127,2.62421 0.60138,2.29225 0.59246,2.76239 -0.084,4.42717 -0.36188,0.89059 -0.65796,2.02295 -0.65796,2.5164 0,0.49342 -0.24949,1.3626 -0.55442,1.93154 -0.31207,0.58227 -0.48495,1.2533 -0.3955,1.53514 0.0874,0.2754 0.0378,0.75443 -0.11016,1.06452 -0.148,0.31007 -0.41763,2.82596 -0.59918,5.59086 -0.36339,5.53418 -0.34639,5.15879 -0.62185,13.72968 -0.10707,3.33121 -0.30436,6.34529 -0.43844,6.69795 -0.13408,0.35267 -0.24379,1.23272 -0.24379,1.95567 0,0.90196 -0.22122,1.74768 -0.70491,2.69475 -0.77173,1.51115 -0.87211,2.50323 -0.89235,8.81997 -0.006,1.90902 -0.13291,4.11168 -0.28175,4.89479 -0.14885,0.78312 -0.31683,1.95964 -0.3733,2.61448 -0.0565,0.65485 -0.24098,1.78594 -0.41004,2.51354 -0.53706,2.31148 -0.31483,5.32114 0.43331,5.86814 0.55366,0.4049 0.96449,0.4317 7.52071,0.4912 2.69214,0.024 6.85932,0.2402 9.26042,0.4794 8.4463,0.8413 9.48108,0.8653 23.6802,0.5495 3.05594,-0.068 5.79438,-0.1385 6.08542,-0.1567 0.99348,-0.062 16.13027,0.5841 19.84375,0.8474 2.03729,0.1445 6.32354,0.3249 9.525,0.4009 3.20146,0.076 6.65427,0.1988 7.67292,0.2729 1.01864,0.074 2.50692,0.1844 3.30729,0.245 0.80036,0.061 2.34818,0.01 3.43958,-0.1204 1.16226,-0.1352 2.53245,-0.1311 3.30729,0.01 2.03173,0.3694 4.13028,0.4757 12.30313,0.6233 8.93819,0.1615 14.03379,0.3342 14.18029,0.4806 0.058,0.058 3.1461,0.064 6.8615,0.013 4.8651,-0.067 7.0676,-0.1971 7.8718,-0.4639 z"
       id="path3922" />
    <path
       style="fill:#000000;stroke-width:0.26458332"
       d="m 1145.3091,1004.759 c 2.3445,-0.3109 6.7762,-0.4298 19.3145,-0.5184 12.934,-0.091 17.6288,-0.2217 22.8865,-0.6353 3.638,-0.2861 7.0313,-0.6281 7.5406,-0.7599 0.5094,-0.1319 2.6525,-0.319 4.7625,-0.4159 2.1101,-0.097 4.4318,-0.2863 5.1594,-0.4207 0.7276,-0.1345 3.2453,-0.3557 5.5948,-0.4917 2.3496,-0.1359 5.2071,-0.4298 6.35,-0.653 1.143,-0.2233 3.0902,-0.524 4.3271,-0.6682 1.2369,-0.1442 3.4396,-0.44121 4.8948,-0.65999 1.4552,-0.21881 4.3722,-0.58925 6.4823,-0.82325 2.11,-0.23397 5.2652,-0.5915 7.0114,-0.79447 1.7463,-0.20296 3.8299,-0.44354 4.6302,-0.53461 0.8004,-0.0911 1.872,-0.31779 2.3813,-0.5038 0.5093,-0.18602 1.3215,-0.34665 1.8049,-0.35695 0.8593,-0.0182 2.9174,-0.37975 7.9847,-1.40234 1.3824,-0.27898 4.1117,-0.7538 6.065,-1.05516 1.9533,-0.30136 4.3346,-0.84418 5.2917,-1.20631 0.9571,-0.36211 2.1043,-0.75171 2.5494,-0.86577 0.9256,-0.23718 1.898,-0.81823 3.4513,-2.06232 0.5971,-0.47819 1.1924,-0.87318 1.3229,-0.87776 0.1306,-0.005 0.9487,-0.36174 1.8181,-0.79375 0.8694,-0.43198 1.8439,-0.78544 2.1656,-0.78544 0.3216,0 1.433,-0.17844 2.4697,-0.39653 1.0368,-0.2181 3.2175,-0.58182 4.846,-0.80828 1.6285,-0.22646 3.3776,-0.57989 3.8869,-0.78544 0.5094,-0.20553 1.6276,-0.5493 2.485,-0.76393 0.8575,-0.21463 1.6838,-0.51499 1.8362,-0.66744 0.254,-0.254 0.2717,-3.00093 0.063,-9.80755 -0.066,-2.14508 0.1,-4.56033 0.9263,-13.49375 0.3158,-3.41349 0.1483,-7.11023 -0.4004,-8.83944 -0.2267,-0.71435 -0.4122,-1.73233 -0.4122,-2.26218 0,-0.52986 -0.1251,-1.08855 -0.2781,-1.24154 -0.4744,-0.47442 -1.0383,-3.05588 -1.0416,-4.76842 0,-0.89842 -0.1139,-2.20811 -0.2493,-2.91042 -0.7061,-3.66323 -0.7969,-4.50892 -0.5693,-5.30225 0.2593,-0.90434 -0.3383,-6.4089 -0.7868,-7.24694 -0.1374,-0.25683 -0.2517,-0.92125 -0.2539,-1.47653 0,-0.55525 -0.2458,-1.96207 -0.5412,-3.12624 -0.5823,-2.29483 -1.0925,-5.51669 -1.8224,-11.50937 -0.257,-2.11005 -0.5432,-4.01505 -0.6361,-4.23334 -0.093,-0.21828 -0.211,-1.28984 -0.2625,-2.38125 -0.052,-1.0914 -0.2821,-2.93687 -0.5121,-4.10104 -0.2301,-1.16416 -0.6168,-3.66448 -0.8592,-5.55625 -0.2425,-1.89177 -0.5467,-3.79677 -0.676,-4.23333 -0.2333,-0.78775 -0.9056,-5.32165 -1.1894,-8.02185 -0.081,-0.77399 -0.3184,-1.89029 -0.5267,-2.48065 -0.2083,-0.59037 -0.3787,-1.52422 -0.3787,-2.07521 0,-1.81872 -0.7761,-5.12562 -1.5515,-6.61096 -0.4197,-0.80388 -0.8404,-1.93498 -0.9349,-2.51354 -0.2419,-1.4804 -0.7302,-6.2279 -0.7121,-6.92391 0.01,-0.36264 -0.3058,-0.80923 -0.8406,-1.19062 -0.7575,-0.54031 -1.1225,-0.6036 -3.1807,-0.55163 -2.4779,0.0626 -7.3445,0.63547 -11.0364,1.29926 -2.7914,0.50186 -9.2725,1.34294 -12.9646,1.68248 -1.528,0.14052 -3.7306,0.37413 -4.8948,0.51912 -3.0691,0.38221 -9.1022,0.99898 -14.4198,1.4741 -5.5253,0.49368 -7.4569,0.77459 -9.9219,1.44301 -1.0186,0.2762 -3.1617,0.63328 -4.7625,0.79348 -1.6007,0.16021 -4.0415,0.45607 -5.4239,0.65744 -1.3825,0.2014 -4.2995,0.56459 -6.4823,0.80711 -2.1828,0.24254 -4.6236,0.56124 -5.424,0.70821 -3.5612,0.65402 -6.7048,0.9837 -9.525,0.99886 -3.3435,0.018 -11.3162,0.62992 -14.0229,1.07632 -0.9459,0.156 -2.6128,0.50345 -3.7042,0.77213 -1.0914,0.26869 -2.4606,0.56931 -3.0427,0.66805 -1.3337,0.22625 -2.9538,0.72427 -6.5384,2.00999 -2.8258,1.01356 -2.8478,1.01679 -7.4083,1.08537 -2.5158,0.0378 -7.5279,0.0464 -11.1381,0.019 -3.6101,-0.0274 -7.7773,0.082 -9.2604,0.24326 -1.483,0.16121 -3.4108,0.31909 -4.2839,0.35084 -3.0898,0.11237 -4.6935,0.43817 -5.3403,1.08492 -0.5364,0.53636 -0.6129,0.87138 -0.6129,2.68348 0,1.90672 0.9002,11.92716 1.1842,13.18205 0.068,0.2993 0.197,1.66851 0.2872,3.04271 0.09,1.37416 0.2749,3.33192 0.4103,4.35057 0.1355,1.01864 0.4208,3.99521 0.6342,6.61458 0.4266,5.23806 0.6678,7.59783 1.4549,14.23556 0.2899,2.44531 0.5271,5.35046 0.5271,6.45589 0,1.10546 0.1777,2.91476 0.3947,4.02069 0.2171,1.10593 0.5158,3.08234 0.6638,4.39203 0.2804,2.48243 0.3682,3.078 1.2871,8.73125 0.8696,5.35046 1.094,6.95661 1.094,7.82876 0,0.4441 0.1731,1.78133 0.3847,2.97164 0.2115,1.1903 0.4953,3.35481 0.6307,4.81002 1.1502,12.36781 2.2321,21.83235 2.5553,22.3553 0.1388,0.22458 0.1762,2.09741 0.1428,7.14574 -0.01,1.23692 0.1007,2.6485 0.242,3.13684 0.284,0.98111 0.077,4.93171 -0.2964,5.65969 -0.1304,0.2541 -0.3575,1.1131 -0.5045,1.9088 -0.22,1.1899 -0.1915,1.5937 0.1607,2.2748 l 0.4282,0.828 1.8986,-0.1764 c 1.0442,-0.097 3.2678,-0.358 4.9413,-0.5799 z"
       id="path3920" />
    <path
       style="fill:#000000;stroke-width:0.26458332"
       d="m 1183.0111,812.04165 c 0.2914,-0.29144 0.6646,-1.21129 0.8294,-2.04409 0.4922,-2.48851 1.3244,-6.08116 2.183,-9.42438 0.4446,-1.73122 0.7494,-3.24315 0.6772,-3.35986 -0.072,-0.11671 -0.01,-0.72433 0.1398,-1.35025 0.149,-0.62593 0.387,-2.86446 0.529,-4.97451 0.142,-2.11005 0.5523,-6.10428 0.9118,-8.87606 0.3595,-2.77177 0.7226,-6.93896 0.8069,-9.26041 0.3417,-9.41676 0.4231,-10.85409 0.6636,-11.72509 0.138,-0.49988 0.185,-1.39714 0.1045,-1.99396 -0.1353,-1.00182 0.5784,-5.48862 1.1826,-7.43511 0.1355,-0.43656 0.3892,-1.62718 0.5638,-2.64583 0.1747,-1.01865 0.4214,-2.20927 0.5485,-2.64583 0.6279,-2.158 1.5566,-10.4063 1.7278,-15.34584 0.066,-1.89177 0.2415,-4.09442 0.3909,-4.89479 0.1494,-0.80036 0.3888,-3.24114 0.532,-5.42396 0.3446,-5.25386 0.698,-9.54426 0.8935,-10.84791 0.087,-0.58209 0.2865,-2.96334 0.4427,-5.29167 0.1562,-2.32833 0.3225,-4.70958 0.3697,-5.29167 0.047,-0.58208 0.2734,-5.22552 0.5029,-10.31875 0.2295,-5.09323 0.5334,-10.44577 0.6753,-11.89453 0.304,-3.10505 0.18,-3.79686 -0.7439,-4.14811 -0.667,-0.25362 -4.4951,-0.50015 -15.5751,-1.00304 -2.9421,-0.13354 -5.4813,-0.32436 -5.6425,-0.42404 -0.1613,-0.0997 -3.4096,-0.27177 -7.2184,-0.38241 -4.4388,-0.12894 -7.6376,-0.34757 -8.9095,-0.60896 -2.7377,-0.56262 -12.49,-1.37327 -24.6063,-2.04535 -2.6921,-0.14933 -7.3356,-0.50364 -10.3187,-0.78734 -6.1547,-0.58533 -10.7795,-0.9814 -15.6828,-1.34309 -1.8587,-0.13712 -5.133,-0.43494 -7.276,-0.66183 -13.1851,-1.39596 -22.2093,-1.86193 -27.6918,-1.42986 -2.0278,0.15981 -4.5281,0.22273 -5.5562,0.13982 -1.0281,-0.0829 -3.7886,-0.2138 -6.1344,-0.29085 -5.9585,-0.19573 -7.0074,-0.3994 -8.4097,-1.63297 -1.6076,-1.41433 -3.8031,-2.50925 -4.3956,-2.19218 -0.3785,0.20261 -0.4619,0.60229 -0.4531,2.17338 0.01,1.52358 -0.1302,2.22863 -0.665,3.38032 -0.3718,0.80036 -0.7529,2.16958 -0.8471,3.04271 -0.094,0.87312 -0.3318,2.42094 -0.5283,3.43958 -0.7295,3.78308 -0.9382,5.10818 -1.3336,8.46667 -0.2228,1.89177 -0.5237,3.97536 -0.6689,4.63021 -0.2466,1.11238 -1.0961,8.38817 -1.5756,13.49375 -0.9007,9.59069 -0.8971,9.47777 -0.4315,13.75833 0.2453,2.25557 0.6091,5.17261 0.8082,6.48229 1.4248,9.36826 1.4448,9.81012 0.6505,14.32735 -0.3033,1.72434 -0.5789,3.90906 -0.6126,4.85494 -0.07,1.96787 -1.152,8.19455 -1.4967,8.61399 -0.6037,0.73467 -3.632,6.97434 -3.7808,7.79018 -0.4859,2.6642 -0.7462,26.34602 -0.3846,34.99789 0.166,3.97193 0.2741,4.71446 1.0286,7.06327 0.5086,1.58329 1.0124,2.6902 1.2697,2.78969 1.1358,0.43907 7.2737,0.44037 13.2981,0.003 6.0794,-0.44157 6.9708,-0.44355 15.7919,-0.0354 l 9.3488,0.43262 3.2189,1.02799 c 4.0272,1.28611 3.8758,1.25505 7.8491,1.6097 1.8191,0.16237 4.0217,0.45648 4.8948,0.6536 3.0031,0.67791 8.5232,1.01584 13.9542,0.8542 2.8782,-0.0857 5.3338,-0.21793 5.4567,-0.29392 0.3786,-0.234 11.155,1.05373 23.1138,2.76201 5.8471,0.83524 10.5439,1.83343 11.8815,2.52516 0.528,0.27302 2.0548,0.51091 4.2951,0.66918 1.9117,0.13507 4.4283,0.43336 5.5925,0.66284 1.1642,0.22949 3.3668,0.45518 4.8948,0.50157 3.4508,0.10472 10.639,0.85418 14.1552,1.47587 2.9887,0.52845 3.998,0.46524 4.7614,-0.29808 z"
       id="path3918" />
    <path
       style="fill:#000000;stroke-width:0.26458332"
       d="m 857.5747,802.27038 c 4.80218,-0.13375 9.92187,-0.19452 11.37708,-0.13505 4.22926,0.17288 23.024,0.50494 29.23646,0.51655 4.12418,0.008 6.59805,-0.12028 8.99583,-0.46543 3.42163,-0.49255 8.82929,-1.42248 9.525,-1.63801 0.21828,-0.0676 2.18281,-0.43793 4.36562,-0.82293 2.18282,-0.385 4.445,-0.78952 5.02709,-0.89892 0.58208,-0.10938 2.48708,-0.4577 4.23333,-0.77404 1.74625,-0.31634 5.37766,-1.0401 8.06979,-1.6084 2.69214,-0.56827 5.6687,-1.17615 6.61459,-1.35081 3.46395,-0.63963 6.92739,-1.52968 7.55656,-1.94193 0.7297,-0.47813 0.79905,-1.03545 0.24864,-1.99827 -0.20796,-0.3638 -0.38638,-1.01864 -0.39647,-1.45521 -0.0101,-0.43656 -0.2484,-1.27 -0.52957,-1.85208 -0.28116,-0.58208 -0.51525,-1.37208 -0.52019,-1.75556 -0.005,-0.38346 -0.17928,-1.27643 -0.38742,-1.98438 -0.90033,-3.06215 -1.73822,-6.37651 -1.73822,-6.87567 0,-0.29705 -0.23846,-1.30427 -0.5299,-2.23827 -0.29145,-0.93401 -0.70535,-2.76977 -0.91978,-4.07945 -0.21443,-1.30969 -0.52454,-3.15516 -0.68912,-4.10104 -0.29958,-1.72173 -0.0905,-2.92397 0.85328,-4.9053 0.36738,-0.77131 3.17152,-1.85134 3.85585,-1.48511 0.71858,0.38457 1.54499,0.11298 1.87761,-0.61703 0.1574,-0.34544 0.48871,-0.59529 0.75973,-0.5729 0.32473,0.0268 0.51068,-0.1732 0.5733,-0.61669 0.051,-0.36103 0.48914,-1.254 0.97371,-1.98438 2.02291,-3.04911 2.03915,-3.13777 2.10881,-11.51443 0.0868,-10.44122 0.38582,-19.55914 0.67239,-20.50521 0.13224,-0.43656 0.23801,-1.03187 0.23505,-1.32291 -0.01,-0.93941 0.22594,-3.33275 0.82009,-8.33438 0.93044,-7.83251 0.81385,-20.43196 -0.29871,-32.27917 -0.87324,-9.29885 -1.19201,-11.27895 -2.04035,-12.67417 -0.40681,-0.66905 -0.89169,-1.59164 -1.0775,-2.05021 -0.18581,-0.45857 -0.62036,-1.09918 -0.96567,-1.42357 l -0.62782,-0.58982 -2.72434,0.44099 c -1.49839,0.24255 -4.51028,0.46644 -6.69309,0.49753 -3.34963,0.0477 -4.31958,-0.034 -6.21771,-0.52372 -3.11228,-0.80301 -7.19865,-1.00333 -20.6375,-1.0117 -6.33015,-0.004 -13.41437,-0.14646 -15.7427,-0.31669 -4.17884,-0.30553 -9.67128,-0.24208 -15.34584,0.17729 -2.24764,0.16611 -3.84432,0.10504 -7.01146,-0.26818 -4.81277,-0.56714 -11.5508,-0.72156 -19.84375,-0.45477 -4.01645,0.12921 -7.97587,0.0761 -12.17083,-0.16332 -6.15544,-0.35127 -8.05599,-0.32052 -8.63117,0.13969 -0.48717,0.38977 -0.6114,1.94193 -0.35198,4.39753 0.13444,1.27256 0.30846,4.75453 0.38671,7.73771 0.0783,2.98317 0.32797,8.32805 0.55492,11.8775 0.31204,4.88016 0.34523,6.97661 0.13614,8.59896 -0.60445,4.69007 -0.61956,5.56198 -0.11775,6.79602 0.35862,0.88191 0.46424,1.78951 0.42869,3.68377 -0.026,1.38245 -0.0522,4.5376 -0.0584,7.01146 -0.0127,5.07814 -0.25888,5.90227 -1.97817,6.62064 -0.48849,0.2041 -0.96652,0.57528 -1.06228,0.82484 -0.24183,0.63021 -0.17304,4.85084 0.11798,7.23889 0.36941,3.03125 0.48061,4.54967 0.64912,8.86354 0.0853,2.18282 0.27791,5.09985 0.42808,6.48229 0.43259,3.98206 0.74998,7.05009 1.05381,10.18646 0.15507,1.60073 0.34372,3.50573 0.41923,4.23334 0.25453,2.45282 0.14971,9.24994 -0.16321,10.58333 -0.17076,0.7276 -0.40914,1.91823 -0.52973,2.64583 -0.12059,0.72761 -0.40709,1.97776 -0.63666,2.77813 -0.22958,0.80036 -0.53394,2.4125 -0.67637,3.58254 -0.14243,1.17004 -0.49614,2.68062 -0.78601,3.35687 -0.28987,0.67625 -0.72893,2.04065 -0.97567,3.03205 -0.24675,0.99136 -0.73917,2.39781 -1.09427,3.12541 -0.3551,0.72761 -0.80969,2.39448 -1.0102,3.70417 -0.20051,1.30969 -0.54527,3.35764 -0.76613,4.55102 -0.50515,2.72939 -0.68214,5.20798 -0.40402,5.65798 0.48016,0.77692 3.90755,0.81188 24.19545,0.24678 z"
       id="path3916" />
    <path
       style="fill:#000000;stroke-width:0.26458332"
       d="m 1379.1874,802.51305 c 10.5719,0.005 10.3399,0.0359 11.5992,-1.57609 0.7543,-0.96555 1.6846,-2.88838 1.5235,-3.14897 -0.077,-0.1244 -0.033,-0.79536 0.097,-1.49103 0.2064,-1.10482 0.1356,-1.5286 -0.5598,-3.34963 -0.5221,-1.36734 -0.7526,-2.37619 -0.6697,-2.93166 0.069,-0.4658 0.013,-1.14456 -0.1258,-1.50836 -0.139,-0.3642 -0.3085,-5.95249 -0.3773,-12.43542 -0.3289,-30.99475 -0.3895,-33.34411 -1.0246,-39.6875 -0.255,-2.54661 -0.4907,-5.34458 -0.5238,-6.21771 -0.033,-0.87312 -0.1497,-2.61757 -0.2591,-3.87654 -0.1389,-1.59724 -0.1002,-2.58855 0.1281,-3.28012 0.2598,-0.78724 0.2597,-1.29222 0,-2.45533 -0.1802,-0.80534 -0.37,-2.54397 -0.4218,-3.86363 -0.1886,-4.81137 -0.5544,-8.25384 -1.0341,-9.7323 -0.5667,-1.74655 -0.4514,-2.36109 1.0839,-5.77571 0.8055,-1.79165 0.8975,-2.23962 0.8975,-4.37323 v -2.37711 l -1.4552,-2.45097 c -0.8004,-1.34803 -1.4552,-2.52715 -1.4552,-2.62025 0,-0.0931 -0.846,-1.69628 -1.8799,-3.56262 -2.1137,-3.81553 -2.2265,-3.89817 -4.6814,-3.43047 -0.8297,0.15807 -1.6871,0.26405 -1.9054,0.2355 -0.2183,-0.0285 -3.1353,0.0405 -6.4823,0.15331 -4.0893,0.13789 -6.3891,0.11358 -7.0114,-0.0741 -1.4962,-0.45127 -12.3752,-0.64919 -16.2169,-0.29503 -1.8616,0.17161 -6.3264,0.41799 -9.9219,0.54752 -6.7138,0.24186 -7.1869,0.30928 -9.4477,1.34636 -1.1754,0.53917 -1.7951,0.61499 -5.5563,0.67976 -2.3283,0.0401 -5.662,-0.0395 -7.4083,-0.17699 -2.0286,-0.15967 -3.6526,-0.15738 -4.4979,0.006 -1.7613,0.34115 -22.4611,2.39226 -31.0844,3.08009 -4.6933,0.37436 -5.5822,0.37326 -9.9218,-0.0123 -2.6217,-0.23291 -5.6174,-0.42324 -6.6571,-0.42294 -1.1804,2.7e-4 -2.5716,-0.21006 -3.7042,-0.56023 -1.6335,-0.50507 -2.2475,-0.54739 -6.1794,-0.42593 -4.6942,0.145 -6.6144,0.53723 -7.7883,1.59099 -0.3592,0.32249 -1.2115,1.71342 -1.8938,3.09096 -1.553,3.13507 -1.9889,5.86025 -1.3416,8.38689 0.4176,1.62988 0.2962,5.71015 -0.3332,11.2012 -0.1417,1.23693 -0.3277,3.55865 -0.4133,5.15938 -0.086,1.60073 -0.387,4.57729 -0.67,6.61458 -0.8812,6.34304 -1.1292,15.50556 -0.6625,24.47396 0.1,1.91479 0.5001,4.99385 1.0746,8.26109 0.3059,1.74019 0.3199,2.49002 0.072,3.83735 -0.2419,1.31271 -0.235,2.05889 0.032,3.45316 0.5283,2.76021 2.1219,9.29076 2.6615,10.90673 0.5982,1.7915 2.1193,7.95145 2.1193,8.58264 0,0.25365 0.4814,1.55173 1.0698,2.88459 0.8756,1.98358 1.3371,2.66348 2.543,3.74632 3.7872,3.40087 4.9533,4.60787 5.815,6.019 1.087,1.77999 1.6211,1.99774 3.7628,1.53414 0.8216,-0.17783 1.7767,-0.37849 2.1225,-0.44593 0.3458,-0.0675 2.608,-0.17637 5.0271,-0.24207 2.419,-0.0657 6.1842,-0.24707 8.3671,-0.40304 2.1828,-0.15595 4.6236,-0.25326 5.4239,-0.21622 0.8004,0.037 2.9541,0.037 4.7861,-1.8e-4 3.5245,-0.0714 5.3224,0.25625 7.517,1.3699 0.5821,0.29538 1.8323,0.74917 2.7782,1.00841 0.9459,0.25924 2.5532,0.70744 3.5718,0.99602 1.0187,0.28856 3.1023,0.84114 4.6303,1.22796 1.5279,0.38682 3.0757,0.82751 3.4395,0.9793 2.434,1.01545 4.3803,0.99262 12.4355,-0.14589 1.5279,-0.21595 3.8541,-0.40685 5.1692,-0.4242 3.2552,-0.0429 11.2751,0.45437 14.6703,0.90971 1.5303,0.20524 4.5087,0.4327 6.6188,0.50546 2.11,0.0728 4.3127,0.19447 4.8948,0.27046 4.5007,0.58748 16.5623,1.29146 17.5779,1.02595 0.209,-0.0547 4.735,-0.0975 10.0577,-0.0953 z"
       id="path3914" />
    <path
       style="fill:#000000;stroke-width:0.26458332"
       d="m 1299.1155,605.6416 c 0.3179,-0.16677 0.6956,-0.49419 0.8394,-0.72761 0.339,-0.55024 0.8882,-3.30294 1.1933,-5.98064 0.3006,-2.63832 0.5454,-3.56532 1.4561,-5.51466 0.5927,-1.26853 0.6829,-1.71951 0.5031,-2.51354 -0.1206,-0.5322 -0.1654,-2.09873 -0.1,-3.48118 0.2648,-5.56755 0.1715,-7.20184 -0.47,-8.23331 -0.3274,-0.5265 -0.5953,-1.22255 -0.5953,-1.54678 0,-0.32423 -0.1877,-1.23527 -0.4172,-2.02454 -0.2294,-0.78926 -0.372,-1.57063 -0.3167,-1.73638 0.055,-0.16574 0.5614,0.26119 1.1248,0.94875 0.8302,1.01316 1.0667,1.55957 1.2477,2.8829 0.1228,0.89804 0.6973,3.02575 1.2767,4.72824 0.6286,1.84716 1.0534,3.58764 1.0534,4.316 0,0.67131 0.1806,1.56976 0.4013,1.99654 0.3313,0.64058 0.3506,1.04224 0.1105,2.30197 -0.1599,0.83929 -0.3525,3.04765 -0.428,4.90746 l -0.1373,3.38148 1.1937,1.19367 1.1936,1.19366 5.7784,-0.0455 c 6.022,-0.0474 6.5571,0.0199 10.4087,1.30932 1.3173,0.44102 2.3324,0.48186 10.7156,0.43104 9.7725,-0.0592 9.9877,-0.0816 13.9429,-1.4498 1.4955,-0.51732 3.6007,-0.97519 7.2891,-1.58531 1.0545,-0.17444 1.9843,-0.42549 2.0661,-0.55788 0.3237,-0.52384 1.1201,-0.18525 2.2342,0.94992 1.2874,1.31177 1.6114,1.39521 2.9359,0.75608 1.6605,-0.80127 2.5756,-1.66872 3.2377,-3.06932 1.2452,-2.63384 1.5749,-4.50122 1.6473,-9.32843 0.037,-2.47385 0.2123,-5.7373 0.3894,-7.25212 0.4102,-3.50855 0.2362,-5.58393 -0.6249,-7.45278 -0.4014,-0.87106 -0.7936,-2.38884 -0.9571,-3.70417 -0.1523,-1.22563 -0.3964,-2.64436 -0.5423,-3.15272 -0.1458,-0.50836 -0.2652,-1.25842 -0.2652,-1.66679 0,-0.40837 -0.1991,-1.12353 -0.4425,-1.58924 -0.2729,-0.52234 -0.4768,-1.65772 -0.5321,-2.96343 -0.049,-1.16416 -0.1491,-2.27823 -0.2216,-2.4757 -0.072,-0.19746 0.2258,-0.76632 0.6629,-1.26412 1.0606,-1.20803 1.7277,-2.57588 2.0903,-4.28632 0.1645,-0.77636 0.6064,-1.93581 0.9819,-2.57656 0.92,-1.56991 1.6879,-4.18748 1.7019,-5.80146 0.01,-0.72761 0.1982,-2.0373 0.4265,-2.91042 0.5927,-2.26696 0.7709,-14.87774 0.2188,-15.48782 -0.2063,-0.22793 -0.3847,-0.76548 -0.3965,-1.19455 -0.012,-0.42907 -0.044,-1.49451 -0.072,-2.36763 -0.027,-0.87313 0.096,-3.01625 0.275,-4.7625 0.243,-2.37312 0.2541,-3.97688 0.044,-6.35 -0.4479,-5.05689 -0.6624,-6.84737 -0.8785,-7.33032 -0.2395,-0.53532 -2.4623,-1.22791 -4.4966,-1.40101 -0.7989,-0.068 -2.981,-0.64382 -4.8491,-1.27964 -3.4676,-1.18025 -6.981,-3.18632 -9.3964,-5.36518 -1.281,-1.15563 -2.1464,-1.16432 -5.706,-0.0573 -2.9147,0.90647 -2.9459,0.90671 -7.4159,0.0562 -0.4872,-0.0927 -1.3206,-0.0438 -1.8521,0.10874 -1.6197,0.46473 -3.691,0.84004 -5.6311,1.02036 -1.6505,0.1534 -1.9307,0.10874 -2.6487,-0.42208 -0.4416,-0.3265 -1.1794,-0.7052 -1.6395,-0.84156 -3.182,-0.94302 -4.8755,-1.29007 -6.3219,-1.29558 -0.9121,-0.003 -2.1347,-0.12496 -2.7168,-0.26998 -1.6538,-0.41203 -8.9531,-1.03102 -12.1708,-1.0321 -2.8679,-10e-4 -2.9315,0.0124 -4.349,0.91554 -1.3695,0.8725 -1.522,0.90891 -3.175,0.7582 -2.543,-0.23185 -4.6922,0.24028 -5.7468,1.26246 l -0.8582,0.83178 -1.5344,-0.3575 c -1.3286,-0.30953 -2.3649,-0.35759 -5.7679,-0.26751 -0.3638,0.01 -0.9293,0.0203 -1.2568,0.0238 -0.3274,0.003 -1.4836,0.0737 -2.5694,0.15619 -1.0857,0.0825 -2.3954,0.0296 -2.9104,-0.11754 -0.515,-0.14711 -1.7102,-0.46906 -2.6561,-0.71544 -0.9459,-0.24639 -2.3151,-0.67037 -3.0427,-0.94217 -1.6444,-0.61427 -7.1331,-0.76683 -8.7221,-0.24243 -0.7218,0.23823 -1.6456,0.27704 -3.1604,0.13276 -1.1772,-0.11213 -2.8548,-0.19646 -3.7279,-0.1874 -0.8731,0.009 -2.5183,-0.10914 -3.6559,-0.26265 -1.6215,-0.2188 -2.2074,-0.20473 -2.7116,0.0651 -0.7137,0.38195 -1.1818,0.15803 -0.6925,-0.33127 0.5889,-0.58886 0.3704,-1.07809 -0.4145,-0.92824 -0.4002,0.0764 -1.6206,0.0289 -2.712,-0.10557 -1.0914,-0.13447 -3.0874,-0.35852 -4.4356,-0.49789 -1.3481,-0.13937 -2.8007,-0.43417 -3.2279,-0.65511 -0.4273,-0.22093 -1.0124,-0.4017 -1.3002,-0.4017 -0.2879,0 -1.2517,-0.4339 -2.142,-0.96423 -1.4652,-0.87282 -1.6802,-0.93128 -2.2679,-0.61675 -0.3571,0.19112 -0.6493,0.48642 -0.6493,0.65623 0,0.16981 -0.4094,0.8343 -0.9098,1.47664 -0.8838,1.13446 -0.9184,1.27018 -1.2099,4.73978 -0.323,3.84486 -0.5201,6.75787 -1.1563,17.0847 -0.2247,3.64851 -0.4692,6.80367 -0.5432,7.01146 -0.074,0.20779 -0.2588,1.56842 -0.4105,3.02363 -0.3099,2.97185 -0.5682,4.88074 -1.1812,8.73125 -0.9607,6.03443 -2.3181,16.88902 -2.7916,22.32496 -0.1316,1.51019 -0.1842,6.97808 -0.117,12.15086 l 0.1223,9.40507 0.8181,1.60747 c 0.4499,0.88411 0.9762,2.20279 1.1696,2.93039 0.3725,1.40201 0.7412,2.40153 2.9866,8.09631 1.3551,3.43704 1.4629,3.61402 2.9104,4.77919 2.8416,2.28737 4.4835,2.91271 12.6156,4.80474 3.0852,0.7178 8.5298,1.50205 10.4278,1.50205 0.6256,0 1.8096,0.17199 2.6309,0.3822 0.8214,0.21021 2.2684,0.44748 3.2157,0.52728 0.9473,0.0798 3.0904,0.32714 4.7625,0.54966 8.6615,1.15266 13.5281,1.72882 16.8297,1.99245 2.0101,0.16051 3.7259,0.3358 3.8129,0.38953 0.087,0.0537 1.8769,0.28734 3.9778,0.51913 2.1009,0.2318 4.4151,0.52219 5.1427,0.64531 1.9585,0.33142 3.5326,0.32498 4.1846,-0.0171 z"
       id="path3912" />
    <path
       style="fill:#000000;stroke-width:0.26458332"
       d="m 1170.7091,603.20362 c 0.528,-0.24485 0.7495,-0.66972 1.0983,-2.10688 0.417,-1.7184 0.9881,-5.44381 1.5586,-10.16626 0.5312,-4.3977 0.8388,-6.5703 1.0585,-7.47526 0.1236,-0.50932 0.5313,-3.66448 0.9059,-7.01146 0.3746,-3.34698 0.8573,-7.36943 1.0726,-8.93878 0.2153,-1.56935 0.3919,-3.53388 0.3925,-4.36563 0,-0.83174 0.1854,-2.58382 0.4107,-3.8935 0.2328,-1.35322 0.507,-5.35113 0.6351,-9.26042 0.124,-3.78354 0.4384,-8.52266 0.6986,-10.53136 0.402,-3.10292 0.4257,-3.98042 0.1576,-5.83457 -0.1735,-1.2003 -0.3155,-2.66766 -0.3155,-3.2608 0,-0.59314 -0.1739,-1.49469 -0.3865,-2.00344 -0.2126,-0.50875 -0.4374,-1.9818 -0.4996,-3.27346 -0.091,-1.89896 -0.025,-2.50038 0.3483,-3.1422 0.2538,-0.43657 0.5906,-1.32953 0.7484,-1.98438 1.0169,-4.219 1.0944,-4.89344 1.2405,-10.80333 0.095,-3.82754 0.3004,-6.87523 0.5414,-8.02094 0.6035,-2.86889 0.5085,-5.19288 -0.2983,-7.29729 -0.8768,-2.28692 -0.8742,-4.05671 0.01,-7.10733 0.3722,-1.28408 0.6768,-2.51107 0.6768,-2.72663 0,-0.54585 1.1225,-2.14048 1.5082,-2.14267 0.1747,-0.001 0.4128,0.14702 0.5292,0.32892 0.1164,0.1819 0.464,0.54357 0.7726,0.80371 0.7176,0.60501 1.626,0.24542 2.2863,-0.90501 0.6085,-1.06029 0.5774,-1.6859 -0.1627,-3.27536 -0.535,-1.14903 -2.1242,-2.7749 -2.7122,-2.7749 -0.1074,0 -0.3838,-0.17064 -0.6142,-0.37921 -0.318,-0.28773 -1.5994,-0.41515 -5.3125,-0.52826 -4.8085,-0.14648 -6.8993,-0.31336 -11.3758,-0.90801 -1.2369,-0.16431 -4.9874,-0.48236 -8.3344,-0.70677 -7.3441,-0.49241 -19.0722,-1.62086 -23.151,-2.22752 -1.9829,-0.29492 -7.5378,-0.81247 -10.0542,-0.93676 -6.1161,-0.30205 -8.0516,-0.69793 -10.3508,-2.11704 -1.694,-1.04561 -5.0688,-1.82216 -9.0961,-2.09301 -1.1641,-0.0783 -3.5454,-0.2621 -5.2916,-0.40845 -1.7463,-0.14634 -5.3777,-0.44861 -8.0698,-0.67169 -8.4889,-0.70343 -9.5883,-0.94497 -13.4938,-2.96441 -1.6735,-0.86533 -4.0547,-1.96307 -5.2917,-2.43943 -1.2369,-0.47635 -3.9158,-1.63184 -5.9531,-2.56774 -2.0373,-0.9359 -3.7959,-1.69884 -3.908,-1.69542 -0.1121,0.003 -1.1836,-0.4567 -2.3812,-1.02248 -1.1976,-0.56579 -2.7132,-1.18433 -3.3681,-1.37454 -0.6548,-0.19021 -1.559,-0.62026 -2.0093,-0.95567 -0.4503,-0.33541 -1.0131,-0.60984 -1.2507,-0.60984 -0.5442,0 -1.1113,0.87361 -1.4828,2.28428 -0.1584,0.60151 -0.4782,1.25146 -0.7106,1.44433 -0.4832,0.40103 -0.779,1.09025 -1.3522,3.15055 -1.0083,3.62452 -1.3845,6.15797 -1.434,9.6573 -0.025,1.78455 -0.1877,3.5349 -0.3711,3.99681 -0.1795,0.452 -0.2659,1.13754 -0.1922,1.52343 0.1417,0.74102 -0.3005,2.12897 -0.9058,2.84372 -0.1987,0.23455 -0.4698,1.09311 -0.6024,1.90791 -0.1326,0.81479 -0.4768,1.81351 -0.765,2.21937 -0.7796,1.09819 -1.8409,5.01711 -1.7761,6.55876 0.031,0.7276 0.1527,2.40744 0.2713,3.73297 0.154,1.71934 0.1299,2.46315 -0.084,2.59531 -0.1649,0.10188 -0.2997,0.51159 -0.2997,0.91046 0,0.39887 -0.1069,0.83832 -0.2375,0.97657 -0.1306,0.13824 -0.2949,0.7276 -0.3649,1.30969 -0.1444,1.19864 -0.1886,1.36572 -1.087,4.10104 -0.687,2.09149 -1.3964,5.55313 -2.3044,11.24479 -0.1625,1.01865 -0.4615,2.30098 -0.6644,2.84963 -0.2029,0.54864 -0.3689,1.32255 -0.3687,1.71979 10e-5,0.39723 -0.408,2.44865 -0.9068,4.5587 -1.5326,6.48271 -2.5285,18.34667 -2.5098,29.89792 0,1.96453 -0.1083,4.15782 -0.2476,4.87396 -0.1394,0.71615 -0.1975,1.44781 -0.1291,1.62592 0.068,0.1781 0,0.8018 -0.1618,1.386 -0.3848,1.42928 -0.4433,13.09747 -0.072,14.47141 0.1571,0.58209 0.3681,2.1299 0.469,3.43959 0.1141,1.48333 0.4704,3.244 0.9448,4.66923 0.4188,1.25839 0.7619,2.44902 0.7625,2.64583 0,0.45638 1.3017,3.7328 2.0359,5.12896 0.8393,1.59639 1.4698,1.83534 3.8205,1.4481 1.0713,-0.17648 3.1888,-0.66573 4.7056,-1.08723 1.5169,-0.42149 3.1507,-0.76635 3.6308,-0.76635 0.5843,0 2.5804,0.87315 6.0364,2.6405 2.8399,1.45228 5.6113,2.91973 6.1588,3.26101 1.5451,0.9632 8.1369,2.51044 12.66,2.97155 3.5378,0.36067 7.2154,0.81074 11.8833,1.45431 1.8587,0.25627 5.296,0.29019 9.9218,0.0979 3.2211,-0.1339 5.9157,0.1558 11.3771,1.22314 0.8004,0.15642 2.1696,0.41465 3.0427,0.57384 0.8732,0.1592 2.1233,0.38931 2.7782,0.51137 0.6548,0.12205 4.822,0.28869 9.2604,0.37031 5.9583,0.10957 8.4944,0.2547 9.6924,0.55468 1.223,0.30621 1.8625,0.34006 2.5964,0.13743 1.629,-0.44978 24.9245,0.25894 28.9862,0.88184 2.3578,0.3616 3.9183,0.29296 5.0271,-0.22115 z"
       id="path3910" />
    <path
       style="fill:#000000;stroke-width:0.26458332"
       d="m 884.00252,586.10679 c 4.96397,-0.79415 9.60032,-1.35658 14.18572,-1.72088 12.56689,-0.9984 14.48434,-1.22412 17.86665,-2.1032 1.43806,-0.37377 3.24172,-0.67957 4.00815,-0.67957 0.76642,0 2.26008,-0.18005 3.31924,-0.40011 4.73632,-0.98405 12.97914,-2.43842 19.52054,-3.44421 8.52685,-1.31108 11.03784,-1.71538 12.96458,-2.08748 1.09141,-0.21077 2.81781,-0.51625 3.83646,-0.67885 3.18327,-0.50811 3.74135,-0.72305 4.09515,-1.57722 0.17679,-0.42681 0.2647,-0.87251 0.19535,-0.99043 -0.0693,-0.11793 0.0371,-1.16691 0.23653,-2.33108 0.19945,-1.16416 0.47983,-3.12869 0.62307,-4.36562 0.14324,-1.23693 0.39199,-2.84427 0.55278,-3.57188 0.16079,-0.7276 0.40182,-2.45401 0.53562,-3.83645 0.64301,-6.64348 1.09732,-10.5219 1.31721,-11.2448 0.41165,-1.35336 0.97614,-6.68151 1.10724,-10.45104 0.008,-0.21828 0.17779,-1.28984 0.37821,-2.38125 0.20042,-1.0914 0.48629,-3.175 0.63527,-4.63021 0.14898,-1.45521 0.45837,-3.18161 0.68754,-3.83646 0.22917,-0.65484 0.47574,-1.72403 0.54794,-2.37598 0.12377,-1.11767 1.41229,-3.4257 2.7356,-4.90006 0.26122,-0.29104 0.7746,-1.48166 1.14083,-2.64583 0.58526,-1.86039 0.68369,-2.74815 0.81293,-7.33234 0.0809,-2.86862 0.25699,-5.50485 0.39137,-5.85828 0.13437,-0.35344 0.2481,-1.6636 0.25274,-2.91148 0.005,-1.24788 0.20699,-3.79087 0.44969,-5.65109 0.47852,-3.66769 0.65804,-13.65145 0.30344,-16.87598 -0.11201,-1.01864 -0.25723,-3.93567 -0.32269,-6.48229 -0.17583,-6.83986 -0.42612,-10.92175 -0.70128,-11.43717 -0.13418,-0.25132 -0.46761,-0.57665 -0.74096,-0.72294 -0.77979,-0.41733 -5.20396,-1.03664 -7.82525,-1.09541 -1.30968,-0.0294 -2.79796,-0.15001 -3.30729,-0.26811 -0.50932,-0.1181 -3.42635,-0.57563 -6.48229,-1.01673 -3.05594,-0.44111 -7.08478,-1.04021 -8.95299,-1.33134 -1.8682,-0.29113 -5.37972,-0.65944 -7.80337,-0.81846 -3.91798,-0.25707 -4.66341,-0.237 -6.72237,0.18098 -2.13138,0.43268 -2.81611,0.44341 -8.6008,0.13471 -12.67762,-0.67653 -29.91724,-1.05287 -52.19026,-1.13929 -4.80882,-0.0187 -6.0691,0.075 -11.1125,0.82593 -3.1287,0.46583 -6.9387,1.00884 -8.46667,1.20668 -2.76896,0.35853 -6.83702,1.28931 -7.76423,1.77646 -0.64388,0.3383 -0.44121,1.44229 0.67471,3.67545 0.66212,1.32503 0.82035,1.94648 0.76432,3.00203 -0.0389,0.7321 -0.14903,1.45186 -0.24484,1.59947 -0.0958,0.1476 -0.19054,1.45899 -0.21051,2.9142 -0.02,1.45521 -0.18646,4.13411 -0.36996,5.95312 -0.18349,1.81901 -0.35582,3.78355 -0.38295,4.36563 -0.0271,0.58208 -0.12065,1.23693 -0.20784,1.45521 -0.0872,0.21828 -0.13895,0.635 -0.11504,0.92604 0.10515,1.27977 -0.44806,6.39562 -0.74368,6.87724 -0.17929,0.2921 -0.46312,1.70422 -0.63073,3.13805 -0.16761,1.43382 -0.54688,3.54105 -0.84281,4.68273 -0.29594,1.14168 -0.57271,2.46886 -0.61504,2.9493 -0.0423,0.48043 -0.13883,1.05211 -0.21445,1.27039 -0.2056,0.59354 -0.74129,2.60547 -1.09192,4.10104 -0.17059,0.7276 -0.38125,1.44198 -0.46813,1.5875 -0.0869,0.14552 -0.30798,1.03849 -0.49131,1.98437 -0.18333,0.94589 -0.72735,3.20808 -1.20892,5.02709 -1.13544,4.28877 -1.83204,9.00135 -2.09237,14.15521 -0.0735,1.4552 -0.2113,3.9626 -0.30621,5.57198 -0.13701,2.32335 -0.0917,3.08643 0.22017,3.70417 0.64287,1.27356 0.9938,5.25915 0.99563,11.3077 7.9e-4,2.39285 -0.10156,3.31914 -0.43824,3.96875 -1.51335,2.92002 -1.61893,7.51643 -0.2352,10.24011 0.63229,1.24457 1.03205,4.40921 0.94647,7.49269 -0.0245,0.88236 0.0946,1.70506 0.27902,1.92725 0.25381,0.30582 0.24607,0.52908 -0.0367,1.05734 -0.45073,0.8422 -0.11467,1.45233 0.96033,1.74357 0.42543,0.11525 3.8096,0.23063 7.52038,0.25638 4.97038,0.0345 7.06038,0.14545 7.9375,0.42136 1.97748,0.62206 4.94858,2.15397 9.07712,4.6802 2.15475,1.31849 4.17881,2.54624 4.49791,2.72834 0.98203,0.56042 4.14753,1.91787 4.47236,1.91787 0.16888,0 0.55285,0.22338 0.85327,0.49641 0.30042,0.27303 1.37966,0.75159 2.3983,1.06346 1.01865,0.31188 2.03068,0.68199 2.24896,0.82246 0.5151,0.33148 3.33533,0.33391 5.39345,0.005 z"
       id="path3902" />
  </g>
</svg>
