<?xml version="1.0" encoding="UTF-8" standalone="no"?>
<!-- Created with Inkscape (http://www.inkscape.org/) -->

<svg
   xmlns:dc="http://purl.org/dc/elements/1.1/"
   xmlns:cc="http://creativecommons.org/ns#"
   xmlns:rdf="http://www.w3.org/1999/02/22-rdf-syntax-ns#"
   xmlns:svg="http://www.w3.org/2000/svg"
   xmlns="http://www.w3.org/2000/svg"
   xmlns:sodipodi="http://sodipodi.sourceforge.net/DTD/sodipodi-0.dtd"
   xmlns:inkscape="http://www.inkscape.org/namespaces/inkscape"
   width="20.715563mm"
   height="20.74478mm"
   viewBox="0 0 20.715563 20.74478"
   version="1.1"
   id="svg8"
   inkscape:version="0.92.4 (5da689c313, 2019-01-14)"
   sodipodi:docname="plus-back.svg"
   inkscape:export-filename="/home/user/memory.quelltext.eu/img/settings/plus.png"
   inkscape:export-xdpi="245.23"
   inkscape:export-ydpi="245.23">
  <defs
     id="defs2" />
  <sodipodi:namedview
     id="base"
     pagecolor="#ffffff"
     bordercolor="#666666"
     borderopacity="1.0"
     inkscape:pageopacity="0.0"
     inkscape:pageshadow="2"
     inkscape:zoom="7.9195959"
     inkscape:cx="35.33705"
     inkscape:cy="43.882528"
     inkscape:document-units="mm"
     inkscape:current-layer="layer1"
     showgrid="false"
     fit-margin-top="0"
     fit-margin-left="0"
     fit-margin-right="0"
     fit-margin-bottom="0"
     inkscape:window-width="1920"
     inkscape:window-height="1036"
     inkscape:window-x="0"
     inkscape:window-y="44"
     inkscape:window-maximized="0" />
  <metadata
     id="metadata5">
    <rdf:RDF>
      <cc:Work
         rdf:about="">
        <dc:format>image/svg+xml</dc:format>
        <dc:type
           rdf:resource="http://purl.org/dc/dcmitype/StillImage" />
        <dc:title></dc:title>
      </cc:Work>
    </rdf:RDF>
  </metadata>
  <g
     inkscape:label="Layer 1"
     inkscape:groupmode="layer"
     id="layer1"
     transform="translate(-89.24774,-150.88626)">
    <path
       style="fill:#e9afdd;stroke:#c837ab;stroke-width:0.26458332px;stroke-linecap:round;stroke-linejoin:round;stroke-opacity:1"
       d="m 91.24391,151.97002 c 0,0 -0.09187,0.0376 -0.09187,0.0835 0,0.0352 -0.02227,0.0668 -0.03341,0.10022 -0.01114,0.0334 -0.02227,0.0668 -0.03341,0.10023 -0.01114,0.0334 -0.01766,0.0687 -0.03341,0.10022 -0.01796,0.0359 -0.04886,0.0643 -0.06682,0.10023 -0.09086,0.0286 -0.01636,0.091 -0.03341,0.13364 -0.0185,0.0462 -0.04832,0.0874 -0.06682,0.13363 -0.0041,0.0103 0,0.0223 0,0.0334 -0.01114,0.0334 -0.01766,0.0687 -0.03341,0.10022 -0.007,0.0141 -0.02959,0.0181 -0.03341,0.0334 -0.0081,0.0324 0.0066,0.0675 0,0.10023 -0.0049,0.0244 -0.02553,0.0432 -0.03341,0.0668 -0.0035,0.0106 0,0.0223 0,0.0334 v 0.10022 0.16705 c 0,0.0111 0.0027,0.0226 0,0.0334 -0.0085,0.0342 -0.0265,0.0657 -0.03341,0.10023 -0.0087,0.0437 0.0087,0.09 0,0.13363 -0.0069,0.0345 -0.02487,0.0661 -0.03341,0.10023 -0.0027,0.0108 0,0.0223 0,0.0334 v 0.10023 c 0,0.0334 0.0072,0.0676 0,0.10022 -0.01528,0.0688 -0.05154,0.1317 -0.06682,0.20045 -0.0072,0.0326 0,0.0668 0,0.10023 v 0.0668 c 0,0.0111 0.0035,0.0228 0,0.0334 -0.0079,0.0236 -0.02553,0.0432 -0.03341,0.0668 -0.0099,0.0296 0.0083,0.13393 0,0.16705 -0.006,0.0242 -0.02416,0.0437 -0.03341,0.0668 -0.01308,0.0327 -0.02487,0.0661 -0.03341,0.10023 -0.01671,0.0668 0.03341,0 0,0.10023 -0.01575,0.0472 -0.0472,0.0879 -0.06682,0.13363 -0.01387,0.0324 -0.02227,0.0668 -0.03341,0.10023 -0.03184,0.0955 -0.04584,0.12898 -0.06682,0.23386 -0.0022,0.0109 0.005,0.0234 0,0.0334 -0.01796,0.0359 -0.04273,0.0681 -0.06682,0.10022 -0.0094,0.0126 -0.02959,0.0181 -0.03341,0.0334 -0.0099,0.0397 0,0.11908 0,0.16704 v 0.3675 1.1359 0.33408 c 0,0.0179 0.0048,0.15748 0,0.16705 -0.007,0.0141 -0.02637,0.0193 -0.03341,0.0334 -0.01575,0.0315 -0.02487,0.0661 -0.03341,0.10023 -0.0027,0.0108 0.005,0.0234 0,0.0334 -0.01796,0.0359 -0.04886,0.0643 -0.06682,0.10023 -0.02397,0.0479 -0.05611,0.19104 -0.06682,0.23386 -0.01114,0.0445 -0.02586,0.0883 -0.03341,0.13363 -0.0037,0.022 0,0.0445 0,0.0668 v 0.13363 c 0,0.0334 0.0081,0.0678 0,0.10023 -0.0076,0.0306 -0.05273,0.0386 -0.06682,0.0668 -0.005,0.01 0,0.0223 0,0.0334 v 0.10022 0.13364 0.56794 0.13364 c 0,0.0445 0.0063,0.0895 0,0.13363 -0.005,0.0349 -0.02843,0.0654 -0.03341,0.10023 -0.0063,0.0441 0,0.0891 0,0.13363 v 0.23387 0.4009 c 0,0.0557 -0.0046,0.11155 0,0.16704 0.0555,0.66602 -0.01132,-0.0787 0.100227,0.3675 0.0108,0.0432 0,0.0891 0,0.13363 0,0.0111 -0.0035,0.0229 0,0.0334 0.0079,0.0236 0.02553,0.0432 0.03341,0.0668 0.0035,0.0106 -0.005,0.0234 0,0.0334 0.007,0.0141 0.02637,0.0193 0.03341,0.0334 0.005,0.01 -0.0062,0.0241 0,0.0334 0.07252,0.10877 0.06215,0.0194 0.100226,0.13363 0.0035,0.0106 0,0.0223 0,0.0334 0.01114,0.0334 0.02033,0.0675 0.03341,0.10023 0.0092,0.0231 0.02853,0.0424 0.03341,0.0668 0.0066,0.0328 -0.01241,0.0692 0,0.10023 0.0117,0.0292 0.04935,0.0406 0.06682,0.0668 0.0062,0.009 0,0.0223 0,0.0334 v 0.10023 0.3675 1.20271 0.23386 c 0,0.0334 -0.0041,0.0671 0,0.10023 0.007,0.0563 0.02869,0.11045 0.03341,0.16704 0.0065,0.0777 -0.01102,0.15669 0,0.23386 0.01147,0.0803 0.0561,0.1535 0.06682,0.23386 0.01177,0.0883 -0.0059,0.17838 0,0.26727 0.0052,0.0786 0.0278,0.15532 0.03341,0.23386 0.0056,0.0778 0,0.15591 0,0.23386 v 0.63477 1.50339 0.63476 0.16705 c 0,0.0223 0.007,0.0457 0,0.0668 -0.005,0.0149 -0.02959,0.0181 -0.03341,0.0334 -0.0081,0.0324 0.01056,0.0685 0,0.10023 -0.0127,0.0381 -0.0519,0.0629 -0.06682,0.10023 -0.01654,0.0413 0.0108,0.0904 0,0.13363 -0.006,0.0242 -0.02737,0.0427 -0.03341,0.0668 -0.0054,0.0216 0.007,0.0457 0,0.0668 -0.005,0.0149 -0.02843,0.0185 -0.03341,0.0334 -0.0051,0.0153 0.0074,0.11877 0,0.13364 -0.007,0.0141 -0.02843,0.0185 -0.03341,0.0334 -0.007,0.0211 0.01,0.0469 0,0.0668 -0.118182,0.23637 -0.02727,-0.12478 -0.100226,0.16705 -0.0027,0.0108 0,0.0223 0,0.0334 v 0.0668 0.26727 c 0,0.0291 -0.0062,0.18812 0,0.20046 0.007,0.0141 0.02227,0.0223 0.03341,0.0334 0.01114,0.0111 0.01813,0.0296 0.03341,0.0334 0.03241,0.008 0.06747,-0.007 0.100226,0 0.02442,0.005 0.04454,0.0223 0.06682,0.0334 0.04454,0.0223 0.087,0.0493 0.133635,0.0668 0.04734,0.0177 0.182463,0.0374 0.233861,0.0668 0.539374,0.30821 -0.499433,-0.18983 0.400904,0.23386 0.09924,0.0467 0.199594,0.0911 0.300678,0.13363 0.110542,0.0465 0.228257,0.0772 0.334087,0.13364 0.06292,0.0335 0.104444,0.0995 0.167044,0.13363 0.08613,0.047 0.266988,0.0835 0.367495,0.10023 0.04287,0.007 0.124261,0 0.167044,0 h 0.267269 c 0.189316,0 0.379001,0.0118 0.567948,0 0.212343,-0.0133 0.423465,-0.042 0.634765,-0.0668 0.167368,-0.0197 0.334087,-0.0445 0.50113,-0.0668 0.167044,-0.0223 0.33935,-0.0196 0.501131,-0.0668 0.618194,-0.34345 0.01647,-0.0729 0.534539,-0.16705 0.341015,-0.062 0.03729,-0.0353 0.167043,-0.10022 0.01,-0.005 0.02345,0.005 0.03341,0 0.01409,-0.007 0.01932,-0.0264 0.03341,-0.0334 0.01,-0.005 0.02345,0.005 0.03341,0 0.02817,-0.0141 0.03864,-0.0527 0.06682,-0.0668 0.01,-0.005 0.02227,0 0.03341,0 h 0.03341 0.334087 0.734991 1.469983 0.534539 c 0.04454,0 0.0897,-0.007 0.133634,0 0.02456,0.004 0.04287,0.0266 0.06682,0.0334 0.0546,0.0156 0.111232,0.0229 0.167043,0.0334 0.122375,0.0229 0.245407,0.0424 0.367496,0.0668 0.100677,0.0201 0.198571,0.0561 0.300684,0.0668 0.11075,0.0117 0.22333,-0.0117 0.33408,0 0.10211,0.0108 0.19891,0.0532 0.30068,0.0668 0.0662,0.009 0.13471,-0.012 0.20045,0 0.059,0.0107 0.10938,0.0503 0.16705,0.0668 0.0214,0.006 0.0457,-0.007 0.0668,0 0.0149,0.005 0.0185,0.0284 0.0334,0.0334 0.0211,0.007 0.0446,0 0.0668,0 h 0.13364 c 0.0334,0 0.0692,-0.0124 0.10022,0 0.0293,0.0117 0.0365,0.0582 0.0668,0.0668 0.0535,0.0153 0.11136,0 0.16704,0 h 0.23386 c 0.0334,0 0.0675,-0.007 0.10023,0 0.0244,0.005 0.0422,0.0293 0.0668,0.0334 0.0439,0.007 0.0897,-0.007 0.13363,0 0.0246,0.004 0.0423,0.0293 0.0668,0.0334 0.0439,0.007 0.0894,-0.006 0.13363,0 0.0456,0.006 0.088,0.0283 0.13364,0.0334 0.0553,0.006 0.11136,0 0.16704,0 h 0.16705 0.43431 c 0.0445,0 0.13459,-0.0108 0.16704,0 0.0381,0.0127 0.0621,0.0541 0.10023,0.0668 0.0643,0.0214 0.13403,0.0201 0.20045,0.0334 0.10068,0.0201 0.19864,0.0555 0.30068,0.0668 0.25056,0.0278 0.2784,-0.0186 0.50113,0 0.0675,0.006 0.13299,0.0273 0.20045,0.0334 0.0724,0.007 0.15771,0 0.23386,0 h 0.33409 0.10022 c 0.0223,0 0.0454,-0.006 0.0668,0 0.0577,0.0165 0.10887,0.0523 0.16705,0.0668 0.0324,0.008 0.0668,0 0.10022,0 h 0.26727 0.70158 0.50113 c 0.078,0 0.15608,0.005 0.23386,0 0.0896,-0.006 0.17794,-0.0245 0.26727,-0.0334 0.0222,-0.002 0.0446,0 0.0668,0 0.0111,0 0.0234,0.005 0.0334,0 0.0141,-0.007 0.0181,-0.0296 0.0334,-0.0334 0.0324,-0.008 0.0668,0 0.10023,0 h 0.13363 c 0.0557,0 0.11244,0.0109 0.16704,0 0.0588,-0.0118 0.10804,-0.0561 0.16705,-0.0668 0.29701,-0.054 0.10583,0.0701 0.33408,-0.0668 0.0135,-0.008 0.0264,-0.0193 0.0334,-0.0334 0.005,-0.01 0,-0.16814 0,-0.20045 v -0.0668 c 0,-0.0111 -0.005,-0.0234 0,-0.0334 0.007,-0.0141 0.0264,-0.0193 0.0334,-0.0334 0.005,-0.01 0,-0.0223 0,-0.0334 0,-0.0211 -0.005,-0.25575 0,-0.26727 0.0117,-0.0292 0.0506,-0.0398 0.0668,-0.0668 0.0375,-0.0625 0.0489,-0.21338 0.0668,-0.26727 0.0157,-0.0472 0.0466,-0.0881 0.0668,-0.13364 0.17063,-0.38391 -0.0309,0.0283 0.13364,-0.30068 0.0111,-0.0223 0.0178,-0.0474 0.0334,-0.0668 0.0295,-0.0369 0.0791,-0.058 0.10022,-0.10023 0.0149,-0.0299 -0.005,-0.0673 0,-0.10023 0.006,-0.0347 0.0265,-0.0657 0.0334,-0.10022 0.009,-0.0437 0,-0.0891 0,-0.13364 v -0.26727 c 0,-0.0223 -0.004,-0.045 0,-0.0668 0.028,-0.13996 0.0345,-0.0691 0.10023,-0.20046 0.0322,-0.0643 0.0454,-0.16963 0.0668,-0.23386 0.0222,-0.0668 0.078,-0.10028 0.10022,-0.16704 0.0106,-0.0317 0,-0.0668 0,-0.10023 v -0.0668 -0.33409 c 0,-0.0347 -0.007,-0.17417 0,-0.20045 0.006,-0.0242 0.0223,-0.0445 0.0334,-0.0668 0.0111,-0.0334 0.0249,-0.0661 0.0334,-0.10023 0.005,-0.0216 0,-0.0445 0,-0.0668 v -0.16705 -0.46772 -0.20045 c 0,-0.0446 0.0122,-0.0908 0,-0.13364 -0.011,-0.0386 -0.0541,-0.0621 -0.0668,-0.10022 -0.0211,-0.0634 0.0131,-0.13493 0,-0.20045 -0.005,-0.0244 -0.0293,-0.0423 -0.0334,-0.0668 -0.008,-0.0492 0,-0.20271 0,-0.26727 v -0.56795 -0.23386 -0.0668 c 0,-0.0111 0.004,-0.0228 0,-0.0334 -0.008,-0.0236 -0.0274,-0.0427 -0.0334,-0.0668 -0.005,-0.0216 0.009,-0.0463 0,-0.0668 -0.0256,-0.0597 -0.0712,-0.10897 -0.10022,-0.16704 -0.005,-0.01 0.002,-0.0225 0,-0.0334 -0.13675,-0.54701 0.0564,0.27138 -0.0334,-0.26727 -0.004,-0.0246 -0.0285,-0.0424 -0.0334,-0.0668 -0.007,-0.0328 0,-0.0668 0,-0.10023 -0.0111,-0.0557 -0.0178,-0.11244 -0.0334,-0.16704 -0.007,-0.0239 -0.0242,-0.0437 -0.0334,-0.0668 -0.0131,-0.0327 -0.0223,-0.0668 -0.0334,-0.10022 -0.0111,-0.0334 -0.0276,-0.0655 -0.0334,-0.10023 -0.005,-0.0329 0,-0.0668 0,-0.10023 v -0.30067 -0.13364 c 0,-0.0223 0.004,-0.045 0,-0.0668 -0.007,-0.0345 -0.0265,-0.0657 -0.0334,-0.10022 -0.004,-0.0218 0.004,-0.045 0,-0.0668 -0.007,-0.0345 -0.0265,-0.0657 -0.0334,-0.10022 -0.004,-0.0218 0,-0.0446 0,-0.0668 0,-0.0111 0.004,-0.0231 0,-0.0334 -0.0185,-0.0462 -0.0483,-0.0874 -0.0668,-0.13364 -0.007,-0.0173 0,-0.10591 0,-0.13363 v -0.13364 c 0,-0.0223 -0.004,-0.045 0,-0.0668 0.0348,-0.1738 0.0223,-0.0334 0.0668,-0.16705 0.0145,-0.0436 0.0173,-0.0906 0.0334,-0.13363 0.0175,-0.0466 0.0511,-0.0864 0.0668,-0.13364 0.018,-0.0539 0.0211,-0.11161 0.0334,-0.16704 0.01,-0.0448 0.0223,-0.0891 0.0334,-0.13363 0.0223,-0.0891 0.0561,-0.17607 0.0668,-0.26727 0.0117,-0.0995 -0.0142,-0.20146 0,-0.30068 0.008,-0.0594 0.057,-0.10789 0.0668,-0.16705 0.0128,-0.0769 0,-0.1559 0,-0.23386 v -0.46772 -0.73499 -0.26727 c 0,-0.0334 0.007,-0.0675 0,-0.10022 -0.005,-0.0244 -0.0274,-0.0427 -0.0334,-0.0668 -0.005,-0.0216 0.007,-0.0457 0,-0.0668 -0.005,-0.0149 -0.0264,-0.0193 -0.0334,-0.0334 -0.008,-0.0152 0.002,-0.15976 0,-0.16704 -0.004,-0.0153 -0.0296,-0.0181 -0.0334,-0.0334 -0.008,-0.0324 0,-0.0668 0,-0.10023 0,-0.0845 0.005,-0.10342 -0.0334,-0.20045 -0.006,-0.0146 -0.0276,-0.0188 -0.0334,-0.0334 -0.0341,-0.0853 -0.0378,-0.18015 -0.0668,-0.26727 -0.008,-0.0236 -0.0274,-0.0427 -0.0334,-0.0668 -0.005,-0.0216 0,-0.0446 0,-0.0668 v -0.13364 -0.56794 -0.66818 -0.23386 c 0,-0.0557 -0.005,-0.11159 0,-0.16704 0.04,-0.44018 0.002,0.026 0.13363,-0.3675 0.0141,-0.0423 -0.006,-0.0894 0,-0.13363 0.006,-0.0456 0.0244,-0.0886 0.0334,-0.13364 0.004,-0.0218 0,-0.0445 0,-0.0668 v -0.20046 c 0,-0.0223 -0.004,-0.045 0,-0.0668 0.007,-0.0345 0.0249,-0.0661 0.0334,-0.10023 0.003,-0.0108 0,-0.0223 0,-0.0334 v -0.23386 -0.50113 -0.53454 c 0,-0.11649 0.0193,-0.26197 -0.0334,-0.36749 -0.0141,-0.0282 -0.0527,-0.0387 -0.0668,-0.0668 -0.01,-0.0199 0.007,-0.0457 0,-0.0668 -0.0157,-0.0472 -0.0483,-0.0874 -0.0668,-0.13363 -0.004,-0.0103 0.005,-0.0234 0,-0.0334 -0.007,-0.0141 -0.0223,-0.0223 -0.0334,-0.0334 -0.0196,-0.0197 -0.1259,-0.11817 -0.13364,-0.13364 -0.005,-0.01 0.005,-0.0234 0,-0.0334 -0.009,-0.0178 -0.0826,-0.0826 -0.10022,-0.10023 l -0.23386,-0.23386 c -0.0557,-0.0557 -0.11137,-0.11136 -0.16705,-0.16705 -0.0334,-0.0334 -0.0707,-0.0633 -0.10022,-0.10022 -0.0704,-0.088 0.0132,-0.058 -0.10023,-0.13364 -0.009,-0.006 -0.0241,0.006 -0.0334,0 -0.0262,-0.0175 -0.0445,-0.0445 -0.0668,-0.0668 -0.0111,-0.0111 -0.0193,-0.0264 -0.0334,-0.0334 -0.0356,-0.0178 -0.0312,0.0178 -0.0668,0 -0.0141,-0.007 -0.0193,-0.0264 -0.0334,-0.0334 -0.0184,-0.009 -0.23626,0.008 -0.26727,0 -0.0153,-0.004 -0.0185,-0.0284 -0.0334,-0.0334 -0.0211,-0.007 -0.0445,0 -0.0668,0 h -0.13363 -0.53454 -2.07134 -0.56795 -0.20045 c -0.0668,0 -0.13512,0.014 -0.20045,0 -0.093,-0.0199 -0.17397,-0.0816 -0.26727,-0.10023 -0.0764,-0.0153 -0.15591,0 -0.23386,0 h -0.26727 -0.70158 -0.43432 -0.13363 c -0.0223,0 -0.0452,0.005 -0.0668,0 -0.42488,-0.10622 0.21292,0.0256 -0.20045,-0.0334 -0.0455,-0.007 -0.088,-0.0283 -0.13364,-0.0334 -0.0553,-0.006 -0.11155,0.005 -0.16704,0 -0.0785,-0.007 -0.15544,-0.0263 -0.23386,-0.0334 -0.0444,-0.004 -0.0895,0.006 -0.13363,0 -0.0697,-0.01 -0.13073,-0.0569 -0.20046,-0.0668 -0.0551,-0.008 -0.11136,0 -0.16704,0 h -0.3675 -0.30067 c -0.0557,0 -0.111562,-0.005 -0.167051,0 -0.07847,0.007 -0.15529,0.0282 -0.233861,0.0334 -0.08889,0.006 -0.178961,-0.0118 -0.267269,0 -0.08036,0.0107 -0.153603,0.0554 -0.233861,0.0668 -0.07717,0.011 -0.155907,0 -0.233861,0 h -0.434313 c -0.05568,0 -0.111922,-0.008 -0.167043,0 -0.04545,0.006 -0.08834,0.0259 -0.133635,0.0334 -0.03182,0.005 -0.147157,-0.008 -0.167043,0 -0.02925,0.0117 -0.03865,0.0527 -0.06682,0.0668 -0.06682,0.0334 -0.05011,-0.0167 -0.100226,0 -0.02362,0.008 -0.0424,0.0285 -0.06682,0.0334 -0.03276,0.007 -0.06781,-0.008 -0.100226,0 -0.01528,0.004 -0.01813,0.0296 -0.03341,0.0334 -0.03241,0.008 -0.06727,-0.005 -0.100226,0 -0.03474,0.006 -0.06549,0.0276 -0.100226,0.0334 -0.03295,0.005 -0.06781,-0.008 -0.100226,0 -0.05818,0.0145 -0.109381,0.0503 -0.167044,0.0668 -0.02142,0.006 -0.04485,-0.004 -0.06682,0 -0.04529,0.008 -0.08818,0.0269 -0.133635,0.0334 -0.03307,0.005 -0.06682,0 -0.100226,0 h -0.233861 -0.634765 -0.567947 c -0.03964,0 -0.234846,0.006 -0.26727,0 -0.02442,-0.005 -0.04266,-0.0274 -0.06682,-0.0334 -0.02161,-0.005 -0.04454,0 -0.06682,0 h -0.233861 -0.7684 c -0.03282,0 -0.178355,0.007 -0.200452,0 -0.02362,-0.008 -0.0424,-0.0285 -0.06682,-0.0334 -0.06201,-0.0124 -0.207082,0.009 -0.26727,0 -0.03486,-0.005 -0.06569,-0.0265 -0.100226,-0.0334 -0.02184,-0.004 -0.04454,0 -0.06682,0 h -0.167044 -0.23386 -0.7684 -0.233861 -0.06682 c -0.01114,0 -0.02284,-0.004 -0.03341,0 -0.241993,0.0807 0.05267,-0.01 -0.100226,0.0668 -0.01992,0.01 -0.04569,-0.007 -0.06682,0 -0.02362,0.008 -0.04266,0.0274 -0.06682,0.0334 -0.04322,0.0108 -0.08996,-0.009 -0.133635,0 -0.03453,0.007 -0.161823,0.0543 -0.161823,0.0543 z"
       id="path877"
       inkscape:connector-curvature="0"
       sodipodi:nodetypes="cscccccccccccscsccccssccssccccccccccccsccscccccccssccscccsccscsccscccccccccccscccsccccccscccsccccccccccccscscsccccccccccssccscccccccsccccscccccccccccssccssccccccscsccccccscsccsccsccsccssccccssccscscccccccssccccscscccsccsccccsccsccccccccccccscsccccsccsscccccccccsccsccccccsccccscccsccccssccsccscccccccccsccccscccccsccccsccscccscccccccscsccccssccccccccccccccsccsccscsccccsccccsccccccc" />
    <text
       xml:space="preserve"
       style="font-style:normal;font-weight:normal;font-size:23.26352119px;line-height:1.25;font-family:sans-serif;letter-spacing:0px;word-spacing:0px;fill:#37c871;fill-opacity:1;stroke:#ffffff;stroke-width:0.26458332;stroke-miterlimit:4;stroke-dasharray:none;stroke-opacity:1;"
       x="89.859375"
       y="168.55122"
       id="text817"><tspan
         sodipodi:role="line"
         id="tspan815"
         x="89.859375"
         y="168.55122"
         style="fill:#37c871;stroke:#ffffff;stroke-width:0.26458332;stroke-miterlimit:4;stroke-dasharray:none;stroke-opacity:1;">+</tspan></text>
    <text
       xml:space="preserve"
       style="font-style:normal;font-weight:normal;font-size:10.58333302px;line-height:1.25;font-family:sans-serif;letter-spacing:0px;word-spacing:0px;fill:#d400aa;fill-opacity:1;stroke:#ffffff;stroke-width:0.26458332;stroke-miterlimit:4;stroke-dasharray:none;stroke-opacity:1;"
       x="24.906841"
       y="189.47983"
       id="text821"
       transform="rotate(-25.232832)"><tspan
         sodipodi:role="line"
         id="tspan819"
         x="24.906841"
         y="189.47983"
         style="fill:#d400aa;stroke:#ffffff;stroke-width:0.26458332;stroke-miterlimit:4;stroke-dasharray:none;stroke-opacity:1;">1</tspan></text>
    <text
       xml:space="preserve"
       style="font-style:normal;font-weight:normal;font-size:10.58333302px;line-height:1.25;font-family:sans-serif;letter-spacing:0px;word-spacing:0px;fill:#0000ff;fill-opacity:1;stroke:#ffffff;stroke-width:0.26458332;stroke-miterlimit:4;stroke-dasharray:none;stroke-opacity:1;"
       x="83.527733"
       y="181.24278"
       id="text825"
       transform="rotate(-6.2575284)"><tspan
         sodipodi:role="line"
         id="tspan823"
         x="83.527733"
         y="181.24278"
         style="fill:#0000ff;stroke:#ffffff;stroke-width:0.26458332;stroke-miterlimit:4;stroke-dasharray:none;stroke-opacity:1;">3</tspan></text>
    <text
       xml:space="preserve"
       style="font-style:normal;font-weight:normal;font-size:10.58333302px;line-height:1.25;font-family:sans-serif;letter-spacing:0px;word-spacing:0px;fill:#ff0000;fill-opacity:1;stroke:#ffffff;stroke-width:0.26458332;stroke-miterlimit:4;stroke-dasharray:none;stroke-opacity:1;"
       x="136.68571"
       y="132.79027"
       id="text829"
       transform="rotate(15.693795)"><tspan
         sodipodi:role="line"
         id="tspan827"
         x="136.68571"
         y="132.79027"
         style="fill:#ff0000;stroke:#ffffff;stroke-width:0.26458332;stroke-miterlimit:4;stroke-dasharray:none;stroke-opacity:1;">4</tspan></text>
    <text
       xml:space="preserve"
       style="font-style:normal;font-weight:normal;font-size:10.58333302px;line-height:1.25;font-family:sans-serif;letter-spacing:0px;word-spacing:0px;fill:#ff6600;fill-opacity:1;stroke:#ffffff;stroke-width:0.26458332;stroke-miterlimit:4;stroke-dasharray:none;stroke-opacity:1;"
       x="114.00316"
       y="154.7887"
       id="text833"
       transform="rotate(8.5481652)"><tspan
         sodipodi:role="line"
         id="tspan831"
         x="114.00316"
         y="154.7887"
         style="fill:#ff6600;stroke:#ffffff;stroke-width:0.26458332;stroke-miterlimit:4;stroke-dasharray:none;stroke-opacity:1;">5</tspan></text>
    <text
       xml:space="preserve"
       style="font-style:normal;font-weight:normal;font-size:10.58333302px;line-height:1.25;font-family:sans-serif;letter-spacing:0px;word-spacing:0px;fill:#d4ff2a;fill-opacity:1;stroke:#ffffff;stroke-width:0.26458332;stroke-miterlimit:4;stroke-dasharray:none;stroke-opacity:1;"
       x="165.50198"
       y="73.671265"
       id="text837"
       transform="rotate(36.518903)"><tspan
         sodipodi:role="line"
         id="tspan835"
         x="165.50198"
         y="73.671265"
         style="fill:#d4ff2a;stroke:#ffffff;stroke-width:0.26458332;stroke-miterlimit:4;stroke-dasharray:none;stroke-opacity:1;">2</tspan></text>
  </g>
</svg>
