<?xml version="1.0" encoding="UTF-8" standalone="no"?>
<!-- Created with Inkscape (http://www.inkscape.org/) -->

<svg
   xmlns:dc="http://purl.org/dc/elements/1.1/"
   xmlns:cc="http://creativecommons.org/ns#"
   xmlns:rdf="http://www.w3.org/1999/02/22-rdf-syntax-ns#"
   xmlns:svg="http://www.w3.org/2000/svg"
   xmlns="http://www.w3.org/2000/svg"
   xmlns:xlink="http://www.w3.org/1999/xlink"
   xmlns:sodipodi="http://sodipodi.sourceforge.net/DTD/sodipodi-0.dtd"
   xmlns:inkscape="http://www.inkscape.org/namespaces/inkscape"
   width="187.47618mm"
   height="187.47618mm"
   viewBox="0 0 187.47618 187.47618"
   version="1.1"
   id="svg8"
   inkscape:version="0.92.4 (5da689c313, 2019-01-14)"
   sodipodi:docname="source-1.svg"
   inkscape:export-filename="/home/user/eu.quelltext.memory/img/sheet/1-7.png"
   inkscape:export-xdpi="27.096775"
   inkscape:export-ydpi="27.096775">
  <defs
     id="defs2">
    <clipPath
       clipPathUnits="userSpaceOnUse"
       id="clipPath4656">
      <path
         style="fill:#000000;stroke-width:0.26458332"
         d="m -57.07339,-26.021767 c 1.67349,-0.147809 4.05474,-0.467335 5.291667,-0.710058 2.175126,-0.426826 4.402682,-0.777235 6.879164,-1.082141 1.254379,-0.154442 4.877395,-1.534395 8.863544,-3.375993 l 2.38125,-1.10014 6.879164,-0.01627 c 6.029281,-0.01426 12.698577,-0.420881 13.890626,-0.846908 0.218281,-0.07801 0.992187,-0.11046 1.719791,-0.07211 1.9758319,0.104148 2.9437227,0.0407 6.482292,-0.424913 1.594268,-0.20978 1.5486404,-0.200054 2.1166665,-0.451199 0.5635016,-0.249148 4.1197899,-1.445096 5.6885416,-1.913009 3.9598732,-1.181111 5.1568561,-1.58773 5.1580494,-1.752209 7.937e-4,-0.100224 0.5371068,-0.262569 1.1919503,-0.36077 0.6548442,-0.0982 1.1906252,-0.284088 1.1906252,-0.413086 0,-0.128997 0.196135,-0.234542 0.435856,-0.234542 0.486436,0 3.517178,-1.037323 3.929769,-1.345028 0.145521,-0.108529 1.045011,-0.491056 1.998869,-0.850059 0.95386,-0.359002 2.095642,-0.99424 2.537301,-1.411636 0.441656,-0.417396 1.089977,-0.968312 1.440712,-1.224257 0.350737,-0.255944 1.01795,-0.766902 1.482698,-1.135462 0.464749,-0.368559 1.371026,-0.849344 2.013953,-1.068411 1.558242,-0.530945 2.371836,-1.303147 2.157709,-2.047901 -0.144648,-0.502971 -2.17796,-4.683522 -4.05873,-8.344792 -0.346263,-0.674068 -0.921112,-2.059017 -1.277443,-3.077662 -0.356327,-1.018646 -0.757631,-1.965193 -0.891783,-2.103438 -0.367374,-0.378582 -0.293142,-1.868778 0.141896,-2.848523 0.212193,-0.477879 0.69383,-1.940435 1.070303,-3.250123 0.376473,-1.309687 0.821759,-2.8575 0.989521,-3.439583 0.167761,-0.582083 0.447423,-1.296458 0.621471,-1.5875 0.174046,-0.291042 0.396918,-1.2119 0.495274,-2.046351 0.09835,-0.834451 0.289555,-1.585619 0.424892,-1.669259 0.135334,-0.08364 0.246065,-0.475747 0.246065,-0.871342 0,-0.395594 0.185462,-0.984049 0.412141,-1.307674 0.226669,-0.323625 0.462016,-0.847391 0.522976,-1.163928 0.06096,-0.316535 0.232674,-0.697368 0.381608,-0.846294 0.148934,-0.148929 0.270775,-0.529651 0.270775,-0.846053 0,-0.316402 0.166396,-1.046908 0.369782,-1.623345 0.338984,-0.960803 0.315595,-1.233448 -0.281067,-3.274412 -0.357982,-1.224489 -0.653362,-2.750704 -0.656432,-3.391588 -0.0029,-0.640887 -0.121708,-1.470785 -0.263683,-1.84422 -0.206693,-0.543632 -0.163804,-0.747953 0.215132,-1.025038 0.351473,-0.257006 0.490379,-0.769724 0.53975,-1.992241 0.200925,-4.976091 0.281993,-6.232515 0.458312,-7.104135 0.133747,-0.6612 0.07178,-1.19679 -0.199099,-1.72061 -0.331788,-0.64158 -0.340202,-0.92604 -0.05382,-1.81809 0.3905,-1.21648 0.875984,-4.25257 1.077305,-6.73731 0.07625,-0.94108 0.296757,-1.89358 0.490035,-2.11666 0.342688,-0.39555 0.28739,-1.17958 -0.06773,-0.96012 -0.09811,0.0606 -0.166079,-1.03995 -0.151024,-2.44575 0.04085,-3.81689 0.06543,-4.0112 0.506915,-4.0112 0.218281,0 0.396875,-0.0633 0.396875,-0.14079 0,-0.0774 -0.178594,-0.56822 -0.396875,-1.09064 -0.469027,-1.12256 -0.508185,-1.99101 -0.107791,-2.39141 0.193384,-0.19338 0.20439,-0.4518 0.03326,-0.78052 -0.140732,-0.27029 -0.168119,-0.72955 -0.06088,-1.02059 0.107262,-0.29105 0.139965,-1.36261 0.07268,-2.38125 -0.13753,-2.08195 -0.142081,-1.89202 0.09041,-3.77032 0.113586,-0.91761 0.295222,-1.38906 0.535146,-1.38906 0.427276,0 0.483103,-0.42385 0.088,-0.66803 -0.172535,-0.10662 -0.210926,-0.73824 -0.102923,-1.69286 0.152638,-1.34915 -0.03866,-2.93214 -0.817827,-6.76723 -0.05911,-0.29105 -0.470006,-0.9245 -0.913051,-1.40768 l -0.80555,-0.8785 -3.635949,0.15945 c -4.351785,0.19084 -9.024493,0.66094 -9.62883,0.9687 -0.91924,0.46813 -3.5616332,0.49387 -7.9613895,0.0775 -2.5116048,-0.23766 -5.8762395,-0.48224 -7.4769686,-0.5435 -1.6007292,-0.0613 -3.2676042,-0.23629 -3.7041667,-0.38895 -2.5841404,-0.90367 -3.8460022,-1.0661 -8.3343752,-1.07282 -2.546614,-0.004 -5.70177,0.1224 -7.011458,0.28047 -1.309687,0.15807 -3.058832,0.28838 -3.886988,0.28957 -0.828155,0.001 -1.572415,0.11006 -1.653909,0.24192 -0.0815,0.13186 -0.395219,0.17514 -0.697172,0.0962 -0.609105,-0.15929 -5.386583,0.32589 -7.652554,0.77715 -2.638634,0.52549 -7.782679,0.25783 -11.568213,-0.60191 -1.190049,-0.27027 -1.514025,-0.25105 -2.335133,0.1386 -0.52436,0.24882 -1.837336,0.51926 -2.917725,0.60097 -1.294572,0.0979 -1.964346,0.25924 -1.964346,0.47316 0,0.18937 -0.546592,0.3971 -1.312042,0.49865 -0.721625,0.0957 -1.376979,0.27912 -1.456346,0.40753 -0.07937,0.12842 -0.416883,0.20357 -0.750033,0.167 -1.403644,-0.15408 -11.485753,0.3279 -12.091996,0.57807 -0.363802,0.15012 -1.911614,0.53555 -3.439583,0.8565 -1.527969,0.32096 -2.984868,0.69076 -3.237555,0.82179 -0.252688,0.13103 -0.792594,0.23823 -1.199796,0.23823 -0.407202,0 -1.391081,0.2279 -2.186403,0.50643 -0.795321,0.27854 -1.922288,0.58452 -2.504371,0.67996 -0.582083,0.0954 -1.772708,0.33778 -2.645833,0.53855 -0.960152,0.22078 -3.103589,0.36478 -5.423959,0.36438 -9.155504,-0.002 -14.47784,0.1654 -14.8422,0.46561 -0.20424,0.16828 -0.96468,0.39433 -1.68987,0.50232 -1.89328,0.28195 -5.01519,1.60203 -5.76935,2.43953 -0.52917,0.58765 -1.51079,3.08026 -1.51207,3.83958 -5.3e-4,0.32203 -0.24505,0.98584 -0.54335,1.47512 -0.29829,0.48928 -0.58498,1.44178 -0.63709,2.11667 -0.0521,0.67488 -0.12015,1.25682 -0.15119,1.29321 -0.0311,0.0364 -0.0751,0.15544 -0.0979,0.26458 -0.0228,0.10914 -0.35215,0.80743 -0.73181,1.55175 -0.83056,1.62832 -0.97233,2.28178 -1.05535,4.86439 -0.054,1.67965 -0.16031,2.08447 -0.6924,2.63619 -0.60687,0.62925 -0.62454,0.76323 -0.51073,3.87154 0.0648,1.77085 0.18665,3.33097 0.27068,3.46694 0.084,0.13596 0.17298,1.66799 0.19766,3.4045 0.0247,1.73651 0.15208,3.75261 0.28312,4.48021 0.13103,0.7276 0.23017,2.063352 0.22032,2.968333 -0.01,0.904981 0.10514,1.875367 0.25555,2.156415 0.34802,0.650288 0.42504,7.789508 0.14879,13.792957 -0.24104,5.238406 -0.25977,8.316008 -0.0612,10.054167 0.0748,0.654843 0.28132,2.500312 0.4589,4.101041 0.17758,1.600729 0.41457,3.089011 0.52664,3.307295 0.34829,0.678346 -0.17238,5.704398 -0.66954,6.463157 -0.24561,0.37484 -0.38243,0.926727 -0.30406,1.22641 0.0807,0.308647 -1.7e-4,0.599622 -0.18654,0.671142 -0.19808,0.07601 -0.28377,0.434549 -0.21533,0.900916 0.0625,0.426062 -0.0248,1.5699 -0.19405,2.54186 -0.20675,1.187244 -0.22023,1.854716 -0.0411,2.033853 0.17672,0.17672 0.17846,0.431426 0.005,0.755276 -0.20149,0.376495 -0.16828,0.488636 0.14468,0.488636 0.52565,0 0.52151,0.640625 -0.008,1.169693 -0.22755,0.227561 -0.33136,0.547034 -0.23068,0.709938 0.10068,0.16291 0.0341,0.388231 -0.14788,0.500724 -0.30377,0.187743 -0.57529,2.196905 -0.9058,6.702674 -0.0622,0.848328 0.0333,2.107099 0.21237,2.797278 0.23822,0.91835 0.25575,1.759593 0.0654,3.136958 -0.1907,1.379707 -0.17793,1.98114 0.0478,2.253168 0.24503,0.295246 1.4243,0.37506 5.77012,0.390539 3.00419,0.01069 6.27981,0.101565 7.27915,0.201924 1.35597,0.136173 1.817,0.100306 1.817,-0.141359 0,-0.245104 0.10202,-0.239162 0.41967,0.02445 0.28488,0.236431 1.41525,0.365667 3.51956,0.402391 1.704949,0.02975 3.525367,0.171575 4.045377,0.315156 0.520012,0.143582 1.256315,0.201636 1.63623,0.129011 0.379918,-0.07263 1.198386,0.07402 1.818815,0.325885 1.049364,0.425987 2.325614,0.675611 5.621322,1.099484 0.725043,0.09325 1.831099,0.455861 2.4579,0.805801 1.336249,0.74602 4.254081,1.721525 4.56833,1.527308 0.119845,-0.07407 0.292687,-0.01365 0.38409,0.134231 0.0914,0.147894 0.665964,0.268898 1.2768,0.268898 0.610835,0 1.526543,0.124863 2.034905,0.277472 1.42762,0.428566 3.649752,0.79198 5.686795,0.930032 1.018646,0.06903 2.663447,0.244579 3.655113,0.390099 0.991667,0.145521 1.906175,0.200838 2.032238,0.122926 0.126066,-0.07791 0.286049,-0.05042 0.355524,0.0611 0.164695,0.264366 3.749646,0.19781 7.583167,-0.140785 z"
         id="path4658"
         inkscape:connector-curvature="0" />
    </clipPath>
    <clipPath
       clipPathUnits="userSpaceOnUse"
       id="clipPath4660">
      <path
         style="fill:#000000;stroke-width:0.26458332"
         d="m 228.59757,-29.978297 c 0.0658,-1.878481 0.1252,-2.147882 0.65609,-2.975975 0.43556,-0.679408 0.6659,-1.348677 1.41144,-4.101042 0.23649,-0.873125 0.77881,-2.308995 1.20513,-3.190827 0.42632,-0.88183 0.77512,-1.812391 0.77512,-2.067915 0,-0.255524 0.11322,-0.676132 0.25159,-0.934691 0.13838,-0.258561 0.3237,-1.173464 0.41183,-2.033127 0.0881,-0.859663 0.27188,-1.979742 0.40838,-2.489065 0.1365,-0.509323 0.24884,-1.631963 0.24964,-2.494756 0,-0.862793 0.11305,-1.934356 0.24942,-2.38125 0.13637,-0.446895 0.37351,-1.705504 0.527,-2.796911 0.15348,-1.091406 0.34882,-2.282031 0.43407,-2.645833 0.0853,-0.363802 0.19265,-1.375833 0.23866,-2.248958 0.046,-0.873125 0.10837,-1.647031 0.13856,-1.719792 0.0302,-0.07276 0.0332,-0.524735 0.007,-1.00439 -0.0623,-1.128493 0.51684,-3.500033 0.99391,-4.07022 0.6785,-0.810903 1.57858,-6.292162 1.77356,-10.80039 0.0346,-0.800364 0.10109,-1.514739 0.14771,-1.5875 0.0466,-0.07276 0.11523,-0.727604 0.15243,-1.455208 0.0738,-1.44385 0.2585,-2.910417 0.3665,-2.910417 0.0375,0 0.103,-0.297656 0.14552,-0.661458 0.11422,-0.977702 0.26017,-1.552205 0.44,-1.73205 0.0879,-0.08793 0.0565,-0.520327 -0.0699,-0.960893 -0.22622,-0.788818 -0.14664,-1.117092 0.95083,-3.921641 0.19931,-0.509322 0.36761,-1.125897 0.37399,-1.370163 0.006,-0.244268 0.18957,-0.62208 0.40709,-0.839584 0.21748,-0.217503 0.53072,-1.327335 0.69609,-2.466295 0.16536,-1.138957 0.41436,-2.214446 0.55335,-2.389973 0.13901,-0.175525 0.18076,-0.435568 0.0928,-0.577871 -0.0879,-0.142304 0.007,-0.713065 0.21035,-1.268358 0.56139,-1.53091 0.97245,-4.2491 0.93289,-6.16901 -0.0196,-0.94588 0.0885,-2.02934 0.23995,-2.40768 0.28324,-0.70752 0.75417,-4.77024 0.64865,-5.59596 -0.0325,-0.25466 0.0622,-0.46302 0.21059,-0.46302 0.14838,0 0.26852,-0.38696 0.26701,-0.8599 -0.0116,-3.61129 0.28089,-13.26232 0.40812,-13.46818 0.18693,-0.30246 -0.10059,-3.88684 -0.34329,-4.27953 -0.092,-0.14891 -0.25371,-1.31333 -0.35925,-2.58759 -0.10555,-1.27425 -0.36664,-2.66706 -0.58018,-3.09513 -0.26953,-0.54027 -0.3098,-0.91849 -0.13174,-1.2367 0.16899,-0.30198 0.15166,-0.99147 -0.0508,-2.02059 -0.16904,-0.85921 -0.24005,-1.67107 -0.15782,-1.80413 0.24812,-0.4015 -0.39614,-1.5122 -1.23833,-2.13487 -0.78917,-0.58346 -0.79955,-0.58395 -2.67748,-0.12752 -1.03687,0.25201 -2.30227,0.68173 -2.81199,0.95492 -0.50972,0.27319 -1.06217,0.49672 -1.22764,0.49672 -0.1655,0 -1.1793,0.28602 -2.2529,0.63561 -3.95251,1.28701 -5.99848,1.15476 -11.74157,-0.75901 -1.45521,-0.48492 -3.59834,-1.08267 -4.7625,-1.32833 -1.16417,-0.24567 -2.59292,-0.61422 -3.175,-0.81901 -0.58209,-0.20478 -1.68932,-0.42489 -2.46052,-0.48914 -0.77121,-0.0642 -1.9023,-0.28942 -2.51355,-0.50041 -1.37824,-0.47572 -4.4623,-1.20055 -5.87385,-1.38049 -0.58208,-0.0742 -4.65574,-0.14652 -9.05259,-0.16072 -4.39684,-0.0142 -8.56403,-0.1325 -9.26041,-0.26289 -0.69639,-0.13039 -2.81398,-0.29099 -4.70575,-0.35688 -1.89177,-0.0659 -4.45161,-0.24137 -5.68854,-0.38996 -1.23693,-0.1486 -3.49912,-0.39041 -5.02709,-0.53737 -3.01471,-0.28995 -5.53346,-0.73527 -5.95312,-1.05252 -0.34568,-0.26131 -3.28104,-0.40196 -6.68814,-0.32045 -1.49563,0.0358 -3.16251,-0.0518 -3.70416,-0.19461 -0.54163,-0.14281 -3.12791,-0.3354 -5.74728,-0.42797 -5.77329,-0.20403 -31.24621,-0.21577 -35.85104,-0.0165 -1.81901,0.0787 -6.76011,0.2035 -10.98021,0.27733 -7.562744,0.1323 -12.026344,0.459 -13.402204,0.98096 -1.059154,0.4018 -1.041456,0.10185 -0.949616,16.09823 0.0071,1.23693 -0.02707,4.8088 -0.07594,7.9375 -0.08165,5.22684 0.04683,16.32221 0.447252,38.629164 0.289771,16.14265 0.183594,21.290661 -0.475218,23.042423 -0.222145,0.590687 -0.74094,3.247128 -1.157976,5.929452 -0.06789,0.436563 -0.422857,3.53219 -0.788829,6.87917 -0.365945,3.346979 -0.848069,6.875623 -1.07135,7.841429 -0.684107,2.959206 -0.485484,8.627446 0.381317,10.881503 0.154649,0.402199 0.680085,1.130144 1.16758,1.617657 l 0.886407,0.886386 3.947398,-0.06619 c 2.171092,-0.0364 5.13805,-0.264922 6.593258,-0.507823 1.76493,-0.294598 3.923162,-0.425773 6.482281,-0.393983 6.09434,0.0757 9.06301,-0.02905 9.98681,-0.352391 0.68889,-0.241128 1.10738,-0.216011 2.11666,0.127042 1.96668,0.668478 13.97302,1.105181 18.15174,0.660228 1.18594,-0.12628 2.57297,-0.228557 3.08229,-0.227285 0.50933,0.0013 1.57224,0.0075 2.36199,0.01394 0.78978,0.0064 1.56369,-0.09274 1.71979,-0.220308 0.15613,-0.127569 1.83166,-0.309819 3.72343,-0.405003 1.89177,-0.09518 4.33255,-0.28189 5.42396,-0.414901 1.93148,-0.235389 7.54957,-0.184534 12.3235,0.111559 1.29847,0.08053 3.73009,0.218842 5.40358,0.307348 1.67349,0.08851 3.3999,0.20429 3.83646,0.257302 0.43656,0.05301 2.01792,0.116914 3.51414,0.142004 1.49622,0.02508 3.69888,0.221663 4.89479,0.43683 1.73993,0.313047 3.44319,0.354089 8.5244,0.205404 3.4925,-0.102198 6.46907,-0.186854 6.61459,-0.188119 0.14552,-0.0013 2.11005,0.07123 4.36562,0.16111 2.25557,0.08988 6.1251,0.22311 8.59896,0.296064 7.35923,0.217027 9.74265,0.398706 10.55783,0.804775 0.42254,0.210481 1.09939,0.382693 1.50413,0.382693 0.40473,0 1.04865,0.118917 1.43094,0.264258 0.38227,0.145341 1.49135,0.33841 2.46462,0.429038 1.38996,0.129437 2.05335,0.352499 3.09248,1.039839 0.7276,0.481277 1.56104,0.883256 1.85208,0.893281 0.46403,0.01598 0.53573,-0.168995 0.58243,-1.502529 z"
         id="path4662"
         inkscape:connector-curvature="0" />
    </clipPath>
    <clipPath
       clipPathUnits="userSpaceOnUse"
       id="clipPath4664">
      <path
         style="fill:#000000;stroke-width:0.26458332"
         d="m 3.7807744,166.50135 c 0.9458854,-0.15714 2.0649803,-0.39095 2.4868769,-0.51962 0.9957409,-0.30363 3.7894157,-0.30265 3.9773457,0.003 0.458171,0.74134 3.528182,0.29866 4.66911,-0.67326 0.229741,-0.19571 0.616694,-0.35584 0.859896,-0.35584 0.243203,0 0.680313,-0.23812 0.971354,-0.52916 0.291042,-0.29105 0.677995,-0.53266 0.859896,-0.53692 0.426389,-0.0101 1.917507,-1.36599 2.311353,-2.10191 0.167288,-0.31257 0.443719,-0.52181 0.614291,-0.46495 0.30005,0.10001 1.241544,-0.87273 1.241544,-1.28275 0,-0.1111 0.18719,-0.40886 0.415978,-0.66167 0.607414,-0.67117 0.939241,-4.39121 0.474382,-5.31813 -0.282485,-0.56329 -0.323297,-2.05906 -0.198525,-7.27604 0.08638,-3.61185 0.212577,-6.65853 0.280432,-6.77037 0.06786,-0.11184 0.174577,-1.64137 0.237154,-3.39894 0.06258,-1.75755 0.157855,-3.2734 0.211724,-3.36852 0.05387,-0.0951 0.0024,-0.94684 -0.114466,-1.89272 -0.11683,-0.94589 -0.104503,-2.58186 0.02739,-3.63551 0.131895,-1.05365 0.253442,-2.60146 0.270108,-3.43958 0.01667,-0.83812 0.196311,-2.61141 0.399214,-3.94063 0.202904,-1.32921 0.313082,-3.28284 0.24484,-4.34141 -0.08486,-1.31628 0.0028,-2.29833 0.277276,-3.10679 0.220744,-0.65019 0.463333,-2.26843 0.539083,-3.59611 0.07575,-1.32766 0.197538,-2.58922 0.270616,-2.80342 0.07308,-0.21424 0.303212,-1.70252 0.511413,-3.30729 0.464185,-3.577912 0.616664,-4.515545 0.922284,-5.671113 0.131074,-0.495644 0.189732,-0.979828 0.130333,-1.075952 -0.0594,-0.0961 -0.171264,-1.714634 -0.248601,-3.596692 -0.136128,-3.31301 -0.459634,-6.65102 -0.882968,-9.110507 -0.112712,-0.654844 -0.118269,-1.905 -0.01243,-2.778125 0.105912,-0.873125 0.20619,-2.659062 0.222805,-3.96875 0.01667,-1.309687 0.136684,-2.868702 0.266859,-3.464486 0.247782,-1.134107 0.386424,-3.729426 0.295487,-5.531347 -0.02937,-0.582083 0.06559,-2.248958 0.211057,-3.704167 0.619073,-6.193708 0.730065,-7.749048 0.648732,-9.090363 -0.04728,-0.779595 0.159121,-3.041783 0.458682,-5.027084 0.299535,-1.985298 0.645689,-5.243491 0.769223,-7.240423 0.123534,-1.996935 0.341313,-3.848844 0.48395,-4.115359 0.142636,-0.266512 0.249687,-1.417285 0.23786,-2.557274 -0.01799,-1.726658 -0.169413,-2.423496 -0.9076,-4.173821 -0.83947,-1.991945 -1.143847,-3.647935 -0.670163,-3.647935 0.118718,0 0.48633,-0.48124 0.816901,-1.069424 0.559038,-0.994654 0.571976,-1.113812 0.185076,-1.704287 -0.785051,-1.19845 -4.472308,-3.344641 -7.170981,-4.17424 C 18.303094,20.536947 15.065349,20.14253 10.187273,20.118511 6.5641328,20.100678 5.2973078,20.178291 5.1432436,20.427568 4.9796623,20.69225 4.6699358,20.679166 3.6315388,20.363711 2.3049286,19.960703 0.70658596,19.79799 -5.2150587,19.463109 -10.586902,19.159323 -27.53229,19.370999 -32.68594,19.806263 c -2.571795,0.217207 -5.330838,0.35215 -6.1312,0.299871 -0.800367,-0.05228 -3.652242,-0.176427 -6.337506,-0.275886 -4.825786,-0.178745 -4.895239,-0.189744 -6.000795,-0.950386 -0.615175,-0.423252 -1.187646,-0.769549 -1.272151,-0.769549 -0.08451,0 -0.658368,-0.219697 -1.275244,-0.488214 -2.118847,-0.922301 -3.016806,-1.099286 -5.577409,-1.099286 -2.288892,0 -2.680623,0.07226 -3.62553,0.66875 -1.351473,0.853147 -3.76074,1.186389 -9.609402,1.32914 l -4.461579,0.108895 -2.417588,-2.368998 c -3.362179,-3.294602 -5.041841,-4.500287 -6.269434,-4.500287 -0.537983,0 -1.120005,0.170921 -1.293379,0.379825 -0.7112,0.856943 -3.434545,1.384631 -6.628733,1.284412 -5.687322,-0.17844 -6.232192,-0.285168 -7.59831,-1.488326 -0.74668,-0.657603 -3.11681,-1.059349 -3.87039,-0.656045 -0.72532,0.388178 -1.47611,1.305174 -1.48708,1.81628 -0.005,0.225557 -0.11161,0.523213 -0.23726,0.661458 -0.12566,0.138245 -0.56738,1.144323 -0.98161,2.235729 -0.41423,1.091407 -0.9721,2.385338 -1.23971,2.875402 -0.26762,0.490067 -0.43028,0.947314 -0.36149,1.016109 0.12304,0.123044 -0.25028,1.294487 -0.90997,2.855365 -0.39751,0.940546 -0.36735,0.852998 -0.63786,1.852083 -0.11821,0.436562 -0.43159,1.27 -0.69643,1.852083 -0.26483,0.582084 -0.60016,1.534584 -0.74518,2.116667 -0.14502,0.582084 -0.69157,2.248959 -1.21456,3.704167 -1.11529,3.103287 -2.20579,6.394408 -2.36705,7.14375 -0.0626,0.291042 -0.41519,1.243542 -0.78346,2.116667 -0.36827,0.873125 -0.67241,1.767774 -0.67586,1.988111 -0.003,0.220334 -0.22521,0.999569 -0.49278,1.731631 -0.26758,0.732063 -0.45747,1.528853 -0.42199,1.770642 0.0355,0.241793 -0.0977,0.574271 -0.29601,0.738841 -0.22275,0.184867 -0.30483,0.577755 -0.21477,1.028039 0.0802,0.400849 -0.0307,1.253667 -0.2463,1.895152 -0.21563,0.641482 -0.53875,2.471264 -0.71804,4.06618 -0.17929,1.594917 -0.54684,3.559448 -0.81677,4.365625 -0.26993,0.806178 -0.4937,1.625992 -0.49728,1.82181 -0.004,0.195818 -0.24662,0.693243 -0.5401,1.105392 -0.29348,0.41215 -0.64281,1.263965 -0.77631,1.892927 -0.1335,0.628962 -0.49666,1.857941 -0.80702,2.731066 -0.31036,0.873125 -0.66294,2.123282 -0.78352,2.778125 -0.12057,0.654844 -0.45933,1.845469 -0.75279,2.645834 -0.53696,1.464453 -0.9382,3.751236 -0.89216,5.084614 0.0136,0.395444 -0.0891,0.789427 -0.22843,0.875522 -0.1393,0.08607 -0.25326,0.406903 -0.25326,0.712946 0,0.527156 -0.13604,1.066139 -1.21852,4.827562 -0.2499,0.868336 -0.48369,1.846077 -0.51955,2.172758 -0.0359,0.326681 -0.25478,0.973958 -0.48648,1.438434 -0.23171,0.464449 -0.42202,1.272645 -0.42291,1.795991 -7.9e-4,0.523346 -0.16293,1.26066 -0.36007,1.638459 -0.19714,0.377799 -0.49561,1.449361 -0.66326,2.38125 -0.16764,0.931889 -0.49391,2.765901 -0.72504,4.075589 -0.23112,1.309687 -0.49462,2.797969 -0.58555,3.307291 -0.0909,0.50932 -0.16055,3.33706 -0.15471,6.28386 0.006,2.94679 -0.0683,5.35781 -0.16472,5.35781 -0.0964,0 -0.0848,0.62508 0.0259,1.38906 0.11065,0.76398 0.26908,2.75828 0.35205,4.43177 0.083,1.67349 0.28144,4.29287 0.44102,5.82083 0.15958,1.52797 0.32576,3.46277 0.36928,4.29954 0.0435,0.83677 0.19392,1.67021 0.33421,1.85208 0.77587,1.00589 1.0725,2.46404 0.82081,4.03484 -0.1399,0.87313 -0.31327,1.7661 -0.38526,1.98438 -0.072,0.21828 -0.13133,0.42251 -0.13188,0.45386 -5.3e-4,0.0314 -0.28141,0.6109 -0.62414,1.28789 -0.34273,0.67699 -0.55812,1.40033 -0.47864,1.60745 0.0838,0.21849 0.005,0.3443 -0.18867,0.29964 -0.58979,-0.13623 -0.72563,1.19256 -0.71418,6.98624 0.006,3.12325 -0.0788,5.82438 -0.18891,6.0025 -0.21803,0.35277 0.58326,1.16747 1.74024,1.76935 0.38565,0.20061 1.51675,0.48863 2.51354,0.64005 5.57831,0.84741 10.6547,1.54729 12.66028,1.74546 1.78266,0.17613 5.43544,0.62349 7.54063,0.9235 0.94588,0.13478 3.32713,0.35187 5.29167,0.48239 4.139281,0.27501 9.665681,1.01608 10.491958,1.40692 0.313545,0.14833 0.702826,0.18762 0.865069,0.0873 0.16224,-0.10025 0.679609,-0.0622 1.149707,0.0846 1.105678,0.34523 2.551266,0.57097 4.691182,0.73261 0.945885,0.0714 2.018831,0.24413 2.384324,0.38375 2.348783,0.89725 9.336141,1.59639 17.383083,1.73926 6.67675,0.11856 7.34374,0.0883 9.182883,-0.41624 1.090747,-0.29924 2.137135,-0.49046 2.325299,-0.4249 0.531899,0.18527 2.439466,0.40053 5.854787,0.66064 1.722276,0.13118 3.49572,0.31853 3.940984,0.41632 1.274901,0.28001 7.653727,0.21479 11.661281,-0.11924 2.008841,-0.16743 3.744679,-0.24741 3.857418,-0.17775 0.112739,0.0697 1.624299,0.4363 3.359024,0.81471 1.734722,0.37843 3.89827,0.86579 4.807884,1.08304 3.57542,0.854 6.455344,1.30739 9.987822,1.57242 1.1641666,0.0874 2.8905729,0.27813 3.8364583,0.42397 0.9458854,0.14581 2.6657988,0.31927 3.8220278,0.38544 1.1562292,0.0662 2.16442389,0.18249 2.24043074,0.2585 0.1407848,0.14079 0.93314306,0.0498 3.99170786,-0.45823 z"
         id="path4666"
         inkscape:connector-curvature="0" />
    </clipPath>
    <clipPath
       clipPathUnits="userSpaceOnUse"
       id="clipPath4668">
      <path
         style="fill:#000000;stroke-width:0.26458332"
         d="m 79.583899,159.34395 c 0.727604,-0.0399 1.382445,-0.15076 1.455206,-0.24628 0.07276,-0.0955 1.084794,-0.31956 2.248958,-0.49792 1.164167,-0.17833 3.604948,-0.72662 5.423958,-1.2184 1.819011,-0.49181 3.575183,-0.89414 3.902605,-0.89406 0.327422,6e-5 0.595312,-0.10779 0.595312,-0.23966 0,-0.13187 0.625078,-0.32377 1.389063,-0.42648 0.763984,-0.10271 1.508125,-0.2694 1.653645,-0.37039 0.232913,-0.16166 1.59938,-0.49493 5.607264,-1.36763 0.61015,-0.13287 1.56265,-0.2458 2.11667,-0.25098 0.55403,-0.005 1.72169,-0.19106 2.59482,-0.41302 0.87312,-0.22198 3.07578,-0.44865 4.89479,-0.50371 1.81901,-0.0551 5.04256,-0.17722 7.16341,-0.27141 3.24966,-0.14436 4.01949,-0.10292 4.89479,0.2635 0.57129,0.23915 1.57445,0.43812 2.2293,0.44217 1.39919,0.009 4.63838,-0.73888 5.48881,-1.26664 0.61923,-0.38428 1.59562,-0.35073 5.22681,0.17962 2.28023,0.33304 3.98913,0.4762 7.40834,0.62064 2.87983,0.12165 5.61482,0.52033 7.64778,1.11479 2.38469,0.69734 3.14857,0.7248 4.40536,0.15836 1.08382,-0.48845 2.3204,-0.76552 4.35102,-0.97489 1.52416,-0.15713 5.29371,-0.98761 5.54302,-1.22118 0.13825,-0.12952 0.79309,-0.23752 1.45521,-0.24003 0.66212,-0.003 2.27542,-0.24165 3.58511,-0.53142 1.30968,-0.28977 2.6789,-0.5775 3.0427,-0.63942 1.09331,-0.18603 3.48515,-0.8746 4.92919,-1.41904 2.49343,-0.94009 3.80328,-1.72762 5.6706,-3.40944 1.01923,-0.91798 1.97623,-1.66905 2.12662,-1.66905 0.15041,0 0.66947,-0.30202 1.15345,-0.67117 1.03598,-0.79017 1.74538,-1.00777 3.18577,-0.9771 0.58208,0.0124 3.14193,0.0428 5.68854,0.0676 3.17095,0.0308 4.88037,0.15521 5.42396,0.39457 0.43656,0.19225 2.25681,0.42942 4.045,0.52708 2.70671,0.14777 3.35635,0.10864 3.87887,-0.23373 0.63455,-0.41577 1.73334,-2.52807 2.30145,-4.42428 0.17021,-0.56812 0.40968,-1.03294 0.53219,-1.03294 0.12247,0 0.2227,-0.29062 0.2227,-0.64585 0,-0.3552 0.10477,-0.71059 0.2328,-0.78972 0.12806,-0.0791 0.43032,-0.77079 0.67167,-1.53697 0.51287,-1.62803 0.96436,-2.61048 1.36967,-2.98058 0.26435,-0.24136 1.46378,-1.74795 3.74605,-4.70535 0.47347,-0.61352 1.09855,-1.35779 1.38907,-1.65397 0.29053,-0.29614 0.52824,-0.66852 0.52824,-0.82748 0,-0.15896 0.16076,-0.42246 0.35724,-0.58552 0.19648,-0.16307 0.57044,-1.21944 0.831,-2.34749 0.26059,-1.12808 0.59118,-2.20049 0.73469,-2.38318 0.14349,-0.1827 0.18614,-0.79971 0.0948,-1.37116 -0.0914,-0.57144 -0.0359,-1.37448 0.12324,-1.7845 0.15915,-0.41003 0.342,-1.99568 0.40632,-3.52365 0.0643,-1.52796 0.19003,-3.19484 0.27935,-3.70416 0.0893,-0.50933 0.13679,-1.29919 0.10546,-1.75527 -0.0313,-0.45609 0.12372,-2.77781 0.34449,-5.15938 0.5761,-6.214164 0.76361,-8.999351 0.80828,-12.006184 0.0217,-1.456926 0.11781,-2.7759 0.2137,-2.931052 0.66402,-1.07442 1.62229,-15.514513 1.35919,-20.481451 -0.21526,-4.063548 -0.39656,-9.399966 -0.50337,-14.816667 -0.0674,-3.419739 -0.2449,-6.991614 -0.39433,-7.9375 -0.14947,-0.945885 -0.33322,-2.315104 -0.40834,-3.042708 -0.0751,-0.727604 -0.32091,-2.385822 -0.54623,-3.684932 -0.22529,-1.299106 -0.43902,-3.246556 -0.47493,-4.327665 -0.0715,-2.153115 -0.0578,-2.130486 -2.83895,-4.690448 -0.63418,-0.583759 -1.34694,-1.357665 -1.58393,-1.719792 -0.42436,-0.648441 -0.87132,-1.124714 -2.68292,-2.858913 -0.50422,-0.482671 -1.0776,-1.197046 -1.27418,-1.5875 -0.55711,-1.106564 -1.812,-2.89977 -3.61567,-5.166712 -0.9095,-1.143116 -1.65364,-2.228326 -1.65364,-2.411584 0,-0.183256 -0.41556,-0.855964 -0.92348,-1.494907 -0.50792,-0.638942 -0.92464,-1.289788 -0.92604,-1.446323 -0.003,-0.156533 -0.30022,-0.56424 -0.66403,-0.906016 -0.3638,-0.341775 -0.66145,-0.7792477 -0.66145,-0.9721607 0,-0.1929159 -0.17267,-0.3507555 -0.38373,-0.3507555 -0.21106,0 -0.48966,-0.1893017 -0.61915,-0.4206716 -0.31586,-0.5644092 -3.67313,-1.5441745 -8.52212,-2.4870384 -1.38245,-0.2688116 -3.19768,-0.7378385 -4.03381,-1.0422839 -2.86415,-1.0428473 -7.5914,-1.3819214 -19.77869,-1.4186694 -6.18464,-0.018653 -14.27057,0.050409 -17.96873,0.1534557 -6.00091,0.1672113 -7.0109,0.2610352 -9.39271,0.8725455 -1.46783,0.376854 -3.14502,0.8938895 -3.7271,1.148969 -1.84463,0.8083447 -3.49465,1.1183832 -10.10322,1.8983696 -2.91344,0.3438657 -7.51676,0.2025229 -9.82713,-0.3017388 -1.32011,-0.2881286 -4.68538,-0.2278695 -6.52799,0.1168903 -0.43656,0.081682 -2.75828,0.2671683 -5.15937,0.4121893 -3.84061,0.2319655 -9.40869,0.7723267 -12.170834,1.1811318 -0.509323,0.075382 -1.580885,0.2029301 -2.38125,0.2834452 -0.800365,0.080513 -2.46724,0.3736102 -3.704167,0.6513299 -1.236927,0.277718 -3.439583,0.703234 -4.894791,0.945592 -1.455209,0.242356 -2.94349,0.54297 -3.307292,0.668028 -0.363802,0.125058 -1.137708,0.308898 -1.719792,0.408535 -1.780566,0.304782 -3.675062,1.842183 -5.360193,4.349843 -0.444315,0.661217 -1.160807,1.580028 -1.592157,2.0418 -1.750245,1.873655 -1.85338,2.555777 -1.109557,7.33932 0.15838,1.018645 0.33319,2.506926 0.388435,3.307291 0.09935,1.438894 0.651166,5.663639 1.175015,8.995833 0.148695,0.945886 0.199046,2.276041 0.111918,2.955904 -0.08715,0.67986 -0.01587,1.830803 0.158592,2.55765 0.207142,0.863442 0.229949,1.489679 0.06585,1.806597 -0.138165,0.266782 -0.328824,2.568651 -0.423701,5.115266 -0.09488,2.546614 -0.295566,6.416146 -0.445984,8.598958 -0.291595,4.232037 -0.313423,5.768893 -0.229947,16.176247 0.02934,3.65819 -0.0172,6.765377 -0.103402,6.904892 -0.08623,0.139515 -0.223094,2.563786 -0.304191,5.387287 -0.162534,5.660234 -0.22442,6.719493 -0.786789,13.468033 -0.212225,2.54662 -0.452808,5.56554 -0.534617,6.70872 -0.08181,1.14319 -0.248764,2.27428 -0.370999,2.51355 -0.268872,0.5263 -0.549804,2.44414 -0.717129,4.89563 -0.0681,0.99812 -0.319482,2.18874 -0.558615,2.64584 -0.323001,0.61743 -0.459261,1.74926 -0.530037,4.40293 -0.05239,1.96453 -0.228124,4.52437 -0.390499,5.68854 -0.162377,1.16417 -0.321839,3.06917 -0.35433,4.23333 -0.03249,1.16417 -0.145732,4.02167 -0.251645,6.35 -0.25736,5.65812 -0.223705,10.4239 0.07631,10.80336 0.134434,0.17003 0.396663,0.96399 0.582718,1.76435 0.350017,1.50561 2.817812,6.65602 3.647625,7.61283 0.455374,0.52504 1.614329,0.85265 2.433373,0.68787 0.218281,-0.0439 0.992187,-0.11253 1.719792,-0.15248 z"
         id="path4670"
         inkscape:connector-curvature="0" />
    </clipPath>
    <clipPath
       clipPathUnits="userSpaceOnUse"
       id="clipPath4672">
      <path
         style="fill:#000000;stroke-width:0.26458332"
         d="m 289.66306,160.05163 c 2.98439,-0.25879 8.78734,-0.68631 11.24479,-0.82839 2.51939,-0.14565 3.19317,-0.31228 4.7625,-1.17782 0.21828,-0.12041 0.90289,-0.45397 1.52135,-0.74128 0.61846,-0.28734 1.12448,-0.64815 1.12448,-0.80187 0,-0.1537 0.28308,-0.27945 0.62907,-0.27945 0.34597,0 0.76222,-0.16047 0.92499,-0.35658 0.16277,-0.19611 0.64614,-0.36653 1.07418,-0.3787 0.42804,-0.0122 0.99499,-0.13814 1.25992,-0.27993 0.61883,-0.33118 2.65766,-0.17703 4.84309,0.36618 0.94589,0.23511 2.13651,0.47988 2.64583,0.54396 3.5156,0.44222 4.97473,0.76197 6.02435,1.32006 1.20812,0.64235 2.81149,0.84545 3.09195,0.39163 0.0835,-0.13499 2.07002,-0.25632 4.41465,-0.26961 2.34464,-0.0132 4.38357,-0.0987 4.53097,-0.18981 0.1474,-0.0911 5.93666,-0.20865 12.86502,-0.26125 6.92835,-0.0526 13.37093,-0.15245 14.31681,-0.22196 1.68019,-0.12345 5.64264,-0.92128 7.32579,-1.47502 0.46392,-0.15264 2.13079,-0.31546 3.70416,-0.36182 3.27353,-0.0965 5.79692,-0.35621 6.56485,-0.67577 0.29104,-0.1211 1.77932,-0.51321 3.30729,-0.87135 3.58944,-0.84133 4.53191,-1.30691 8.20208,-4.05183 1.67349,-1.25159 3.49499,-2.50754 4.04778,-2.79096 0.5528,-0.28342 1.07085,-0.68667 1.1512,-0.89612 0.0804,-0.20942 0.79804,-0.75377 1.59481,-1.20962 0.79676,-0.45588 1.51447,-1.00036 1.5949,-1.20997 0.0805,-0.2096 0.30078,-0.32181 0.48964,-0.24934 0.69612,0.26712 0.92353,-0.48117 0.61423,-2.0212 -0.24855,-1.23773 -0.22754,-1.60663 0.13261,-2.32863 0.28943,-0.58015 0.34325,-0.96001 0.16621,-1.17332 -0.14398,-0.17349 -0.21338,-0.36401 -0.15422,-0.42339 0.0591,-0.0594 0.18677,-0.63971 0.28358,-1.28966 0.0968,-0.64992 0.30776,-1.42382 0.46873,-1.71979 0.16098,-0.29593 0.31507,-1.07386 0.34243,-1.72871 0.0274,-0.65484 0.13073,-3.38547 0.22971,-6.06806 0.099,-2.68258 0.2432,-4.97974 0.32049,-5.10481 0.0773,-0.12507 0.003,-0.39315 -0.16518,-0.59577 -0.19373,-0.23344 -0.22058,-0.54416 -0.0733,-0.8483 0.12785,-0.26395 0.21013,-1.78962 0.18288,-3.39035 -0.0273,-1.60073 0.0442,-3.02948 0.15872,-3.175 0.28641,-0.36383 0.40476,-2.32407 0.16386,-2.71388 -0.10808,-0.17484 -0.0653,-0.56298 0.095,-0.86252 0.16032,-0.29953 0.21731,-0.77824 0.12669,-1.06381 -0.0935,-0.29448 -0.0426,-0.51916 0.11763,-0.51916 0.37542,0 0.36245,-1.13705 -0.0172,-1.51681 -0.1829,-0.1829 -0.2141,-0.48709 -0.0801,-0.78052 0.12079,-0.26445 0.24448,-2.02861 0.27485,-3.92038 0.0303,-1.891772 0.11131,-3.911072 0.17992,-4.487308 0.0686,-0.576263 0.0306,-1.231106 -0.0844,-1.455208 -0.30157,-0.587746 -1.06794,-6.037342 -1.02473,-7.286652 0.0201,-0.582083 -0.0894,-1.375701 -0.24334,-1.76358 -0.3098,-0.780362 -0.72581,-5.265526 -0.58492,-6.306212 0.11518,-0.850794 0.11362,-3.691826 -0.004,-6.879166 -0.0509,-1.382448 -0.0698,-4.478073 -0.042,-6.879167 0.0278,-2.401094 -0.003,-4.722812 -0.0687,-5.159375 -0.0656,-0.436562 -0.10035,-1.984375 -0.0773,-3.439583 0.0727,-4.582319 -0.0428,-8.979554 -0.29519,-11.235259 -0.23085,-2.063356 -0.29917,-2.231067 -1.30067,-3.193399 -0.95999,-0.922433 -1.90637,-2.380964 -1.90637,-2.937986 0,-0.120846 -0.35719,-0.957088 -0.79375,-1.85832 -0.43657,-0.901232 -0.79375,-1.866614 -0.79375,-2.145294 0,-0.278683 -0.23813,-0.809422 -0.52917,-1.17942 -0.29104,-0.369999 -0.52917,-0.855655 -0.52917,-1.079233 0,-0.223578 -0.20222,-0.629952 -0.44937,-0.903052 -0.24714,-0.273103 -0.47334,-0.639665 -0.5026,-0.814583 -0.16256,-0.970947 -1.26526,-2.927163 -2.31859,-4.113157 -1.50718,-1.696985 -1.93289,-3.078277 -1.47376,-4.781731 0.17978,-0.667004 0.47051,-1.391327 0.64606,-1.609608 0.17552,-0.218282 0.46104,-0.813594 0.63442,-1.322917 0.30165,-0.886145 0.2776,-0.957834 -0.55785,-1.663967 -0.48022,-0.405861 -1.17076,-0.801741 -1.53456,-0.879732 -0.98324,-0.210796 -5.12659,-2.268376 -5.37096,-2.667212 -0.11636,-0.189936 -0.34224,-0.345339 -0.50191,-0.345339 -0.42426,0 -2.59226,-1.833071 -2.6026,-2.200527 -0.005,-0.172159 -0.21321,-0.55114 -0.46303,-0.842182 -0.70389,-0.820047 -2.79746,-0.910677 -12.36046,-0.535072 -3.59129,0.141055 -6.18434,0.109252 -8.06979,-0.09897 -1.52797,-0.168746 -4.20687,-0.367602 -5.95312,-0.4419 -1.74625,-0.0743 -4.78235,-0.250346 -6.74688,-0.391215 -1.96453,-0.14087 -4.94109,-0.310171 -6.61458,-0.376227 -1.67349,-0.06606 -4.11427,-0.184954 -5.42396,-0.264218 -1.30969,-0.07926 -4.40531,-0.20178 -6.87917,-0.272259 -2.47385,-0.07048 -5.21229,-0.1849651 -6.08541,-0.2544076 -10.65057,-0.8470874 -10.04438,-0.817626 -21.43125,-1.041617 -4.65667,-0.091601 -9.18091,-0.2948807 -10.0539,-0.451731 -1.03984,-0.1868329 -3.8685,-0.2252689 -8.20209,-0.1114531 -4.08366,0.1072515 -7.93102,0.063376 -10.05443,-0.1146625 -1.89177,-0.1586151 -5.03822,-0.3512238 -6.99209,-0.4280217 -1.95389,-0.076795 -3.64673,-0.197861 -3.7619,-0.2690337 -0.11515,-0.071173 -1.6921,-0.1368927 -3.50437,-0.1460447 -3.3569,-0.01696 -3.6789,0.046982 -8.23121,1.6343498 -0.29104,0.1014836 -0.88636,0.2928117 -1.32292,0.4251695 -0.93411,0.2832127 -0.84608,-0.5825357 -1.03193,10.148774 -0.0693,4.001823 -0.18978,8.407134 -0.2677,9.789582 -0.0779,1.382448 -0.21479,3.882763 -0.30411,5.55625 -0.22567,4.228438 -0.26191,4.619948 -0.64887,7.011461 -0.18838,1.164166 -0.36343,3.069166 -0.38904,4.233333 -0.0626,2.848835 -0.35772,5.881883 -0.83656,8.598958 -0.3814,2.164035 -0.66077,4.453869 -1.1298,9.260417 -0.12067,1.236927 -0.40232,3.558646 -0.62587,5.159375 -0.22355,1.600729 -0.47511,3.56526 -0.55904,4.365625 -0.0839,0.800365 -0.27559,2.197097 -0.42595,3.103848 -0.36806,2.219701 -0.37367,10.42234 -0.009,13.697194 0.16187,1.455208 0.35086,3.717396 0.42,5.027083 0.0691,1.309688 0.24016,3.214688 0.3801,4.233333 0.13994,1.018649 0.28345,3.259979 0.31895,4.980779 0.0355,1.72077 0.1578,3.18632 0.27176,3.25676 0.11398,0.0704 0.20722,0.59751 0.20722,1.17128 0,1.07947 0.89101,6.11368 1.33509,7.5433 0.13882,0.44688 0.25241,1.07788 0.25241,1.40221 0,0.3243 0.17253,0.92329 0.38338,1.33104 0.21087,0.40778 0.37902,0.9674 0.3737,1.24365 -0.005,0.27622 0.0941,1.09754 0.22103,1.82515 0.12692,0.7276 0.14407,2.75166 0.0381,4.49791 -0.10594,1.74625 -0.26466,4.78235 -0.35267,6.74688 -0.23489,5.24269 -1.36284,14.16224 -1.92889,15.25312 -0.13972,0.26927 -0.26416,1.71291 -0.27651,3.20807 -0.0124,1.49517 -0.0922,2.83126 -0.17735,2.96908 -0.26348,0.4263 0.64304,1.51881 1.53363,1.84838 0.46585,0.17237 1.04103,0.41457 1.27815,0.53824 0.48956,0.25532 4.75358,0.11419 7.46426,-0.24701 1.58962,-0.21186 4.38653,-0.084 7.766,0.35509 1.27172,0.16521 4.48005,0.9143 6.55727,1.53101 1.01515,0.30139 2.87708,0.59931 4.13761,0.66204 1.2605,0.0628 2.81117,0.28218 3.44591,0.48761 0.88585,0.28672 2.10714,0.33816 5.2551,0.22135 2.25557,-0.0837 4.57729,-0.19352 5.15937,-0.244 z"
         id="path4674"
         inkscape:connector-curvature="0" />
    </clipPath>
    <clipPath
       clipPathUnits="userSpaceOnUse"
       id="clipPath4676">
      <path
         style="fill:#000000;stroke-width:0.26458332"
         d="m 7.2562588,335.8012 c 1.3189029,-0.71321 1.759019,-1.09032 1.638636,-1.40401 -0.068612,-0.17883 0.059828,-0.86876 0.2854195,-1.53323 0.2255917,-0.66448 0.3450217,-1.37785 0.2654009,-1.58536 -0.079621,-0.20751 -0.017595,-0.45585 0.1378556,-0.55192 0.1580835,-0.0977 0.28262,-1.01386 0.28262,-2.07902 0,-1.04743 0.124632,-2.32029 0.2769582,-2.82866 0.152326,-0.50837 0.281752,-1.75773 0.287615,-2.7764 0.0059,-1.01865 0.107585,-1.97115 0.226055,-2.11667 0.118472,-0.14552 0.276667,-0.9194 0.351544,-1.71979 0.07488,-0.80034 0.324056,-2.5863 0.553725,-3.96875 0.229672,-1.38245 0.53109,-3.28745 0.669822,-4.23331 0.37025,-2.52439 0.505933,-3.13335 1.10712,-4.96869 0.634023,-1.93561 0.625147,-1.88931 1.142349,-5.95847 0.218244,-1.71704 0.459867,-3.22392 0.536942,-3.34864 0.07707,-0.1247 0.248913,-0.9225 0.381863,-1.77287 0.13295,-0.8504 0.4768,-2.61771 0.764109,-3.92737 0.287308,-1.30969 0.591224,-3.5719 0.67537,-5.02711 0.08415,-1.45521 0.274383,-3.5388 0.422748,-4.63021 0.148366,-1.09138 0.270952,-2.69875 0.272415,-3.57187 0.0016,-0.87313 0.05078,-2.89719 0.109591,-4.49792 0.159276,-4.33512 0.135805,-8.41396 -0.06519,-11.32802 -0.09851,-1.42824 -0.08573,-3.69043 0.02841,-5.02708 0.324625,-3.80164 0.402111,-9.68013 0.150611,-11.42614 -1.004184,-6.9714 -1.542759,-11.40301 -1.546653,-12.72648 -0.0053,-1.79666 -0.589468,-4.80481 -1.138677,-5.86349 -1.052192,-2.02824 -1.264253,-3.51231 -1.124334,-7.86836 0.113451,-3.532 0.737889,-8.91617 1.366367,-11.78134 0.103068,-0.46988 -0.01476,-0.815 -0.39614,-1.16012 -0.907774,-0.82153 -2.863199,-0.91125 -21.8536645,-1.00269 -0.5820831,-0.003 -2.3084893,0.023 -3.8364585,0.0576 -2.464617,0.0557 -2.957954,-0.0132 -4.371662,-0.61018 -1.923929,-0.81248 -2.961503,-0.91069 -14.546046,-1.37689 -1.018646,-0.041 -2.785388,-0.21667 -3.926091,-0.39037 -3.33138,-0.50728 -9.54558,-0.4522 -11.287451,0.1001 -2.148901,0.68132 -4.325218,0.92 -9.921875,1.08815 -7.506901,0.22553 -7.636994,0.21529 -9.768612,-0.7688 -4.818793,-2.22465 -6.782774,-2.64041 -8.234492,-1.74321 -0.800582,0.4948 -1.037371,0.52983 -1.77895,0.26323 -0.470493,-0.16914 -2.165131,-0.4087 -3.76586,-0.53234 -7.420914,-0.57319 -9.923261,-0.82552 -11.641667,-1.17398 -2.416431,-0.48998 -7.159855,-0.90501 -12.435412,-1.08802 -2.32833,-0.0808 -6.00576,-0.33287 -8.17206,-0.56018 -4.60525,-0.48323 -10.29122,-0.21418 -15.64044,0.74004 -2.4584,0.43855 -3.53409,0.50271 -3.70809,0.22117 -0.0878,-0.14203 -0.27866,-0.25823 -0.42418,-0.25823 -0.14552,0 -0.191,0.11906 -0.10106,0.26458 0.0899,0.14552 0.017,0.26458 -0.16204,0.26458 -0.51855,0 -2.61609,2.33725 -2.61609,2.91508 0,0.28847 -0.13197,0.52451 -0.29327,0.52451 -0.17985,0 -0.22975,0.25307 -0.12901,0.65442 0.12924,0.51493 0.0783,0.62142 -0.2389,0.49969 -0.29437,-0.11295 -0.35716,-0.0349 -0.2327,0.28948 0.0937,0.24432 0.0457,0.70406 -0.10671,1.02166 -0.48215,1.00457 -0.7828,2.72203 -0.7448,4.25469 0.0237,0.95393 -0.0707,1.48214 -0.26465,1.48214 -0.2081,0 -0.28889,0.81915 -0.26097,2.64583 0.0223,1.45521 -0.0521,2.64584 -0.16528,2.64584 -0.11315,0 -0.18782,0.45725 -0.16592,1.0161 0.0219,0.55885 -0.0455,1.15417 -0.14981,1.32292 -0.10429,0.16875 -0.10193,0.44871 0.005,0.62214 0.10719,0.17341 0.22768,1.2152 0.26776,2.3151 0.0401,1.09988 0.14303,3.01181 0.22876,4.24874 0.0857,1.23692 0.18695,5.93989 0.22493,10.45104 0.038,4.51114 0.16695,8.41616 0.28661,8.6778 0.15183,0.33198 0.0773,0.57833 -0.24665,0.81521 -0.34088,0.24924 -0.43411,0.59738 -0.35089,1.31019 0.0623,0.53393 0.005,0.97076 -0.12643,0.97076 -0.13187,0 -0.1727,0.17478 -0.0907,0.38841 0.082,0.21362 0.0556,0.44614 -0.0586,0.5167 -0.11419,0.0706 -0.22005,1.29574 -0.23525,2.72262 -0.0152,1.42687 -0.13744,2.89097 -0.27165,3.2536 -0.31923,0.86249 -0.17136,5.01552 0.1915,5.37837 0.15485,0.15486 0.28155,0.78648 0.28155,1.40364 0,0.61715 0.11906,1.19568 0.26458,1.28562 0.14552,0.0899 0.26458,0.83264 0.26458,1.65048 0,1.43613 0.30597,2.82008 0.86005,3.89019 0.14626,0.28247 0.31139,1.23497 0.36696,2.11667 0.0556,0.88169 0.20913,1.84121 0.34125,2.13225 0.51511,1.13477 0.7666,2.23692 0.62979,2.76008 -0.0787,0.30096 -0.0358,0.54721 0.0953,0.54721 0.13119,0 0.1937,1.07095 0.139,2.38125 -0.0585,1.40171 0.004,2.38125 0.15264,2.38125 0.13863,0 0.19502,0.29832 0.12531,0.66297 -0.0697,0.36464 0.0162,0.83518 0.19085,1.04566 0.19175,0.23103 0.23939,0.62351 0.12023,0.99065 -0.22812,0.70286 -0.32342,1.76895 -0.37317,4.17449 -0.0203,0.98216 -0.16964,1.81007 -0.34964,1.93836 -0.24005,0.17113 -0.23576,0.25578 0.0182,0.35872 0.18281,0.0741 0.26738,0.23993 0.18795,0.36846 -0.0794,0.12854 -0.36468,1.07257 -0.63386,2.09786 -0.26917,1.02528 -0.60522,2.01128 -0.74677,2.19109 -0.38072,0.48366 -0.66422,1.74765 -0.7158,3.19143 -0.0251,0.70237 -0.16892,1.35721 -0.31963,1.45521 -0.44883,0.29192 -0.77773,1.12355 -1.27385,3.22093 -0.25816,1.09141 -0.57335,2.32958 -0.70042,2.75146 -0.12707,0.4219 -0.23104,1.21854 -0.23104,1.77032 0,0.55179 -0.13098,1.08419 -0.29107,1.18314 -0.18964,0.11721 -0.23022,0.66699 -0.11643,1.57769 0.11156,0.89286 0.0721,1.46116 -0.10908,1.57316 -0.17912,0.1107 -0.19597,0.33215 -0.0457,0.60068 0.14376,0.25688 0.13405,0.72358 -0.0245,1.17851 -0.18867,0.5412 -0.17188,0.86243 0.0596,1.14141 0.25936,0.3125 0.23602,0.42127 -0.11969,0.55777 -0.24303,0.0933 -0.38045,0.32964 -0.30537,0.5253 0.0751,0.19566 -0.0669,0.47577 -0.31552,0.62249 -0.30616,0.18065 -0.35803,0.33231 -0.16074,0.47 0.44967,0.3138 0.5998,1.61097 0.29965,2.58898 -0.20977,0.68347 -0.1876,0.96461 0.0983,1.24624 0.45143,0.44473 3.15944,1.29048 4.60246,1.4374 2.09463,0.21325 2.7909,0.38449 2.62896,0.64651 -0.10315,0.1669 0.35987,0.24474 1.24941,0.21005 0.77732,-0.0303 3.43736,0.14547 5.91122,0.39058 4.14524,0.41071 5.17182,0.53033 7.01145,0.8169 0.36381,0.0567 1.61396,0.13047 2.77813,0.16399 1.16417,0.0335 2.23573,0.15097 2.38125,0.26104 0.14552,0.11004 0.56224,0.20248 0.92604,0.20544 1.29792,0.0106 8.07705,0.60998 8.46667,0.74864 0.21828,0.0777 1.34452,0.19199 2.50275,0.25398 1.251313,0.067 2.190793,0.24376 2.31511,0.43561 0.145407,0.22442 0.269748,0.23635 0.407657,0.0391 0.222951,-0.31885 1.503079,-0.35208 1.808083,-0.0469 0.109085,0.10914 0.826315,0.19844 1.593836,0.19844 0.767525,0 1.476936,0.13176 1.576478,0.29284 0.126106,0.20405 0.248727,0.18399 0.404416,-0.0661 0.18665,-0.29988 0.317021,-0.30099 0.791871,-0.007 0.364969,0.2263 0.659768,0.26112 0.823598,0.0973 0.16383,-0.16383 0.534992,-0.11557 1.036936,0.13483 0.559131,0.2789 0.877938,0.3102 1.119434,0.10978 0.185713,-0.15415 0.74685,-0.21847 1.246973,-0.14298 0.500121,0.0755 2.338062,0.25344 4.084312,0.39544 4.49307,0.36542 5.693138,0.48395 6.746875,0.66641 0.509323,0.0882 1.283229,0.19357 1.719792,0.23413 1.29196,0.12017 2.350254,0.44574 2.844271,0.87503 0.294253,0.25569 0.46302,0.29096 0.46302,0.0968 0,-0.16808 0.12609,-0.30559 0.280199,-0.30559 0.15411,0 0.206614,0.11906 0.116676,0.26458 -0.08994,0.14553 -0.04735,0.26459 0.09463,0.26459 0.141984,0 0.297836,-0.11578 0.346342,-0.25731 0.05442,-0.15878 0.704782,-0.11319 1.69808,0.11901 0.885436,0.20698 2.552311,0.44215 3.704164,0.52261 2.14193,0.14962 4.409657,0.5638 5.160667,0.94255 0.231304,0.11663 0.588489,0.10575 0.79375,-0.0241 0.585917,-0.37089 1.299241,-0.28432 1.299241,0.15772 0,0.28445 0.19348,0.36695 0.661459,0.2821 0.363802,-0.066 0.661461,-0.003 0.661461,0.14271 0,0.14449 0.14183,0.17505 0.315182,0.0679 0.583851,-0.36086 3.760433,-0.31332 4.197443,0.0628 0.294169,0.25318 1.803757,0.4029 5.291669,0.52482 2.684042,0.0938 5.272283,0.1555 5.751645,0.13709 0.479361,-0.0185 1.217591,0.14541 1.640506,0.36409 0.97427,0.50382 1.212906,0.50406 0.795219,0 -0.411568,-0.49591 -0.160952,-0.5089 0.60462,-0.0313 0.349491,0.21804 1.743462,0.43116 3.453794,0.52808 1.577285,0.0894 3.005492,0.24765 3.173796,0.35166 0.336125,0.20775 0.32561,0.20711 7.263369,0.4377 2.697512,0.0896 5.080127,0.29022 5.384861,0.45331 0.300617,0.16089 0.772409,0.23347 1.04843,0.16129 0.276019,-0.0722 0.568653,-0.0233 0.650298,0.10895 0.08165,0.13208 0.766371,0.17108 1.521616,0.0866 1.82702,-0.20428 8.9598603,0.32827 9.1806131,0.68543 0.1179853,0.19092 0.3922842,0.19849 0.8524134,0.0236 0.3731442,-0.14187 0.7537368,-0.18267 0.8457562,-0.0906 0.2060575,0.20605 1.7348438,0.30062 5.7740787,0.35713 1.7098699,0.0241 3.108854,0.13907 3.108854,0.25585 0,0.11676 0.4464847,0.25903 0.9921875,0.3161 0.5457031,0.0571 1.008343,0.1238 1.0280888,0.14827 0.019738,0.0246 0.3174021,-0.10774 0.6614584,-0.29379 z"
         id="path4678"
         inkscape:connector-curvature="0" />
    </clipPath>
    <clipPath
       clipPathUnits="userSpaceOnUse"
       id="clipPath4680">
      <path
         style="fill:#000000;stroke-width:0.26458332"
         d="m 212.47087,352.04863 c 0.1819,-0.0188 0.33073,-0.21275 0.33073,-0.43103 0,-0.21826 0.10372,-0.39688 0.23051,-0.39688 0.34189,0 0.59859,-2.32865 0.69995,-6.35 0.0495,-1.96453 0.15695,-4.88156 0.23876,-6.48229 0.0818,-1.60073 0.22855,-6.30367 0.32615,-10.45104 0.0976,-4.14732 0.21202,-8.01685 0.25427,-8.59896 0.16685,-2.29812 0.0848,-12.93458 -0.10192,-13.20554 -0.40605,-0.58941 -0.12361,-8.21965 0.45141,-12.19446 0.66339,-4.58581 0.87669,-27.94394 0.31408,-34.39582 -0.62928,-7.21667 -0.71982,-11.26935 -0.45508,-20.37292 0.0423,-1.45521 -0.0167,-3.18161 -0.13102,-3.83646 -0.11438,-0.65484 -0.27731,-2.73843 -0.36208,-4.63021 -0.14674,-3.2744 -0.45998,-6.14936 -0.76396,-7.01145 -0.077,-0.21828 -0.20341,-0.90464 -0.28099,-1.52522 -0.0776,-0.62061 -0.27392,-1.37668 -0.43635,-1.68016 -0.18963,-0.35435 -0.32967,-3.16994 -0.39129,-7.86749 -0.11311,-8.62147 -0.1786,-9.6483 -0.77073,-12.08455 -0.41437,-1.70482 -0.52345,-1.88066 -1.42119,-2.29042 -0.53482,-0.24413 -1.92489,-0.51946 -3.08906,-0.61188 -1.16417,-0.0924 -2.65245,-0.27768 -3.30729,-0.41169 -1.21854,-0.24934 -3.30089,-0.42436 -8.20208,-0.68934 -3.78421,-0.20461 -5.60073,-0.19392 -7.9375,0.0468 -2.07891,0.21413 -2.45266,0.22029 -8.87413,0.14631 -2.18866,-0.0251 -4.15319,0.013 -4.36562,0.0848 -1.55192,0.52491 -17.92976,0.6314 -23.27275,0.15137 -4.99301,-0.4486 -9.30818,-0.4813 -12.44013,-0.0943 -2.12312,0.26234 -6.88001,0.47205 -9.91716,0.4372 -0.43657,-0.005 -3.23453,-0.0405 -6.21771,-0.0788 -5.06722,-0.0651 -14.0199,0.19666 -15.21354,0.44484 -0.29104,0.0605 -1.42214,0.16576 -2.51354,0.23387 -1.09141,0.0681 -2.69875,0.2368 -3.57188,0.37488 -1.65362,0.26149 -6.751717,0.58148 -10.847917,0.68088 -3.105891,0.0754 -6.903691,0.37021 -8.069789,0.62648 -0.509323,0.11195 -1.461823,0.17161 -2.116669,0.13261 -0.654844,-0.039 -1.666875,0.0549 -2.248956,0.20865 -0.582086,0.15375 -1.653646,0.30697 -2.38125,0.34047 -0.727604,0.0335 -2.234938,0.1551 -3.349625,0.27024 -1.843778,0.19045 -2.037506,0.26575 -2.146117,0.83397 -0.116205,0.60791 0.07308,1.89825 0.635055,4.32885 0.151395,0.65484 0.32652,1.42875 0.389176,1.71979 0.123214,0.57248 0.486513,15.19433 0.42074,16.93333 -0.122793,3.24549 -0.303821,4.95959 -0.555892,5.26328 -0.155943,0.18791 -0.21799,0.4072 -0.137874,0.48731 0.08009,0.0801 -0.04741,0.80973 -0.283369,1.62139 -0.235953,0.81167 -0.434417,1.98533 -0.441058,2.60813 -0.0066,0.62281 -0.135255,1.28411 -0.285803,1.46953 -0.150574,0.18542 -0.206192,0.4047 -0.123589,0.48731 0.0826,0.0826 -0.08617,0.70157 -0.375047,1.37549 -0.288872,0.67392 -0.553191,1.70637 -0.587346,2.29436 -0.03416,0.58798 -0.152215,1.21486 -0.262361,1.39305 -0.230505,0.37296 -0.934191,2.87748 -1.245105,4.43141 -0.335095,1.67494 -1.164008,4.44227 -1.525109,5.09177 -0.18161,0.32663 -0.428916,1.66375 -0.549595,2.97143 -0.12065,1.30765 -0.340437,2.5287 -0.488365,2.71343 -0.147955,0.18474 -0.230029,1.13626 -0.182404,2.1145 0.04765,0.97824 -0.0074,1.83668 -0.122187,1.90767 -0.114853,0.071 -0.231087,0.75809 -0.25831,1.52691 -0.0272,0.7688 -0.15666,1.81536 -0.287655,2.32564 -0.131022,0.5103 -0.238125,1.70172 -0.238022,2.64761 1.06e-4,0.94588 -0.126947,2.05319 -0.282334,2.4607 -0.15539,0.40748 -0.343485,2.31248 -0.417989,4.23333 -0.07451,1.92083 -0.194072,3.79008 -0.265721,4.15388 -0.07165,0.3638 -0.20148,1.67349 -0.288555,2.91042 -0.08705,1.23693 -0.24802,2.74203 -0.35769,3.34468 -0.110093,0.60494 -0.08924,1.29256 0.04654,1.53521 0.147876,0.26424 0.150096,0.56582 0.0056,0.75637 -0.132212,0.17428 -0.266012,0.78735 -0.297365,1.36239 -0.03133,0.57505 -0.185261,1.20012 -0.34208,1.38906 -0.204073,0.24591 -0.202221,0.44339 0.0064,0.69485 0.195475,0.23553 0.211746,0.62966 0.0494,1.19573 -0.172826,0.60265 -0.158406,0.79264 0.05038,0.66361 0.199205,-0.12312 0.224922,-0.0193 0.08059,0.32564 -0.330914,0.79069 -0.708686,3.33574 -0.554698,3.73701 0.07625,0.19872 -0.03524,0.42804 -0.247756,0.50958 -0.288846,0.11084 -0.354886,0.45895 -0.26162,1.37906 0.08358,0.82458 -0.02064,1.53639 -0.315516,2.15681 -0.242147,0.50932 -0.461275,1.64042 -0.486992,2.51354 -0.02566,0.87313 -0.190632,2.18281 -0.366501,2.91042 -0.287443,1.18906 -0.414681,1.9545 -0.681672,4.10104 -0.04524,0.3638 -0.153035,1.07818 -0.239528,1.5875 -0.08649,0.50932 -0.22852,1.69995 -0.315621,2.64583 -0.0871,0.94589 -0.203465,2.13651 -0.258577,2.64584 -0.05514,0.50932 -0.16936,2.29166 -0.253868,3.96075 -0.08451,1.6691 -0.256276,3.09817 -0.381688,3.17567 -0.125413,0.0775 -0.201427,0.66214 -0.16891,1.29918 0.03252,0.63704 -0.04069,1.82737 -0.162692,2.64517 -0.122026,0.81783 -0.283872,2.14178 -0.359701,2.94214 -0.07583,0.80037 -0.247809,2.15734 -0.382217,3.01548 -0.134409,0.85815 -0.178383,1.66704 -0.09774,1.79753 0.08064,0.13049 0.0071,0.40542 -0.163513,0.61095 -0.170577,0.20553 -0.234976,0.4953 -0.143139,0.64392 0.09186,0.14861 -0.01826,1.16657 -0.244422,2.2621 -0.226298,1.09551 -0.47424,2.49172 -0.550995,3.10264 -0.07676,0.61092 -0.190447,1.16168 -0.252651,1.22386 -0.0622,0.0622 0.01085,0.34488 0.16256,0.62815 0.151606,0.28328 0.191029,0.71411 0.0876,0.95739 -0.418862,0.98536 -0.382429,2.10286 0.08752,2.68319 0.380339,0.46972 0.811265,0.60891 2.123202,0.68591 0.905325,0.0531 2.567569,0.26895 3.693901,0.47964 2.218637,0.41502 6.038559,0.85 6.678083,0.76046 0.218281,-0.0306 1.289844,0.0769 2.38125,0.23871 1.091406,0.16184 2.520156,0.32242 3.175,0.35681 0.654844,0.0344 1.624568,0.1487 2.154952,0.25398 0.541099,0.10745 1.181417,0.0753 1.458965,-0.0733 0.354621,-0.18976 0.636773,-0.16079 0.996686,0.10239 0.458734,0.33541 1.147048,0.3157 2.268564,-0.065 0.218281,-0.0741 1.11125,-0.18454 1.984375,-0.24545 0.873125,-0.0609 2.242343,-0.17126 3.042708,-0.24529 2.93878,-0.27181 9.258776,-0.34079 9.405964,-0.10266 0.216667,0.3506 1.441953,0.29993 1.441953,-0.0596 0,-0.21436 0.592772,-0.25794 2.029354,-0.1493 1.385226,0.10475 2.514227,0.0293 3.556847,-0.23786 1.05505,-0.27027 2.35016,-0.35425 4.18751,-0.27149 1.46304,0.0659 2.72698,0.0114 2.80879,-0.12086 0.0818,-0.13235 0.51927,-0.24064 0.97218,-0.24064 0.45289,0 1.04818,-0.20341 1.32287,-0.45196 0.73824,-0.6681 2.00945,-0.5139 3.96819,0.48141 0.94771,0.48159 8.49897,1.3667 11.05218,1.29548 0.21828,-0.006 1.11125,-0.0146 1.98437,-0.0185 0.87313,-0.004 1.97213,-0.12962 2.44221,-0.27888 0.47011,-0.14925 0.99986,-0.18166 1.17724,-0.072 0.17737,0.10962 2.35259,0.22088 4.8338,0.24723 2.48124,0.0265 4.57087,0.077 4.64363,0.11263 0.18348,0.0898 2.45136,0.0299 4.43177,-0.11702 0.9095,-0.0675 1.65364,-0.0143 1.65364,0.11824 0,0.19915 1.66476,0.20064 2.11667,0.003 0.0728,-0.032 0.25135,-0.0314 0.39687,0 0.33684,0.0757 11.92737,0.26496 15.08125,0.24622 1.30969,-0.008 2.55985,0 2.77813,0.0188 2.07177,0.17158 4.23079,0.259 9.78958,0.39634 3.56526,0.0881 7.67292,0.21657 9.12813,0.28552 1.4552,0.0689 3.3602,0.15446 4.23333,0.1901 0.87312,0.0356 1.71312,0.14499 1.86669,0.24305 0.15356,0.0981 0.71911,0.0791 1.25677,-0.0422 0.55369,-0.12485 1.40782,-0.114 1.96977,0.0251 0.5457,0.13504 3.07578,0.29864 5.62239,0.36354 5.28752,0.13475 8.42735,0.38047 8.60859,0.67371 0.10443,0.16899 1.17478,0.17634 2.70235,0.0185 z"
         id="path4682"
         inkscape:connector-curvature="0" />
    </clipPath>
  </defs>
  <sodipodi:namedview
     id="base"
     pagecolor="#ffffff"
     bordercolor="#666666"
     borderopacity="1.0"
     inkscape:pageopacity="0.0"
     inkscape:pageshadow="2"
     inkscape:zoom="0.35"
     inkscape:cx="1268.1653"
     inkscape:cy="342.05249"
     inkscape:document-units="mm"
     inkscape:current-layer="layer1"
     showgrid="false"
     inkscape:window-width="1920"
     inkscape:window-height="1036"
     inkscape:window-x="0"
     inkscape:window-y="44"
     inkscape:window-maximized="0"
     inkscape:snap-object-midpoints="true"
     inkscape:snap-center="true"
     fit-margin-top="0"
     fit-margin-left="0"
     fit-margin-right="0"
     fit-margin-bottom="0" />
  <metadata
     id="metadata5">
    <rdf:RDF>
      <cc:Work
         rdf:about="">
        <dc:format>image/svg+xml</dc:format>
        <dc:type
           rdf:resource="http://purl.org/dc/dcmitype/StillImage" />
        <dc:title></dc:title>
      </cc:Work>
    </rdf:RDF>
  </metadata>
  <g
     inkscape:label="Layer 1"
     inkscape:groupmode="layer"
     id="layer1"
     transform="translate(138.97455,179.84926)">
    <image
       sodipodi:absref="/home/user/eu.quelltext.memory/img/sources/source-1.jpg"
       xlink:href="source-1.jpg"
       transform="translate(261.13481,-360.38551)"
       clip-path="url(#clipPath4680)"
       width="863.59998"
       height="647.70001"
       preserveAspectRatio="none"
       id="image4650"
       x="-239.90047"
       y="-186.67719" />
    <image
       sodipodi:absref="/home/user/eu.quelltext.memory/img/sources/source-1.jpg"
       xlink:href="source-1.jpg"
       transform="translate(15.336005,-353.23327)"
       clip-path="url(#clipPath4676)"
       y="-186.67719"
       x="-239.90047"
       id="image4648"
       preserveAspectRatio="none"
       height="647.70001"
       width="863.59998" />
    <image
       sodipodi:absref="/home/user/eu.quelltext.memory/img/sources/source-1.jpg"
       xlink:href="source-1.jpg"
       transform="translate(-90.603307,-183.50679)"
       clip-path="url(#clipPath4672)"
       width="863.59998"
       height="647.70001"
       preserveAspectRatio="none"
       id="image4646"
       x="-239.90047"
       y="-186.67719" />
    <image
       sodipodi:absref="/home/user/eu.quelltext.memory/img/sources/source-1.jpg"
       xlink:href="source-1.jpg"
       transform="translate(437.15514,-331.7939)"
       clip-path="url(#clipPath4668)"
       y="-186.67719"
       x="-239.90047"
       id="image4644"
       preserveAspectRatio="none"
       height="647.70001"
       width="863.59998" />
    <image
       sodipodi:absref="/home/user/eu.quelltext.memory/img/sources/source-1.jpg"
       xlink:href="source-1.jpg"
       transform="translate(421.90168,-358.79842)"
       clip-path="url(#clipPath4664)"
       width="863.59998"
       height="647.70001"
       preserveAspectRatio="none"
       id="image4642"
       x="-239.90047"
       y="-186.67719" />
    <image
       sodipodi:absref="/home/user/eu.quelltext.memory/img/sources/source-1.jpg"
       xlink:href="source-1.jpg"
       transform="translate(1.5921543,-187.19723)"
       clip-path="url(#clipPath4660)"
       y="-186.67719"
       x="-239.90047"
       id="image4640"
       preserveAspectRatio="none"
       height="647.70001"
       width="863.59998" />
    <image
       sodipodi:absref="/home/user/eu.quelltext.memory/img/sources/source-1.jpg"
       xlink:href="source-1.jpg"
       transform="translate(29.482144,-201.83928)"
       clip-path="url(#clipPath4656)"
       width="863.59998"
       height="647.70001"
       preserveAspectRatio="none"
       id="image72"
       x="-239.90047"
       y="-186.67719" />
  </g>
</svg>
